<svg xmlns="http://www.w3.org/2000/svg" xmlns:xlink="http://www.w3.org/1999/xlink" width="40" height="41.55" viewBox="0 0 40 41.55"><defs><clipPath id="a"><rect width="40" height="41.55" fill="none"/></clipPath></defs><g clip-path="url(#a)"><path d="M36.754,24.944V15.821a1.613,1.613,0,0,0-.026-.284,1.616,1.616,0,0,0-1.6-1.907,1.623,1.623,0,1,1,1.623-1.623,1.623,1.623,0,0,0,3.245,0,4.864,4.864,0,0,0-8.076-3.657L24.895,4.519a4.867,4.867,0,0,0-9.712.047L8.123,8.392a4.866,4.866,0,1,0-4.8,8.233v8.32a4.867,4.867,0,1,0,4.84,8.238l7.016,3.8A4.874,4.874,0,0,0,20.04,41.55a1.623,1.623,0,0,0,0-3.245,1.623,1.623,0,1,1,1.623-1.623,1.622,1.622,0,0,0,3.2.365L31.929,33.2a4.846,4.846,0,0,0,3.2,1.206,1.623,1.623,0,1,0,0-3.245,1.623,1.623,0,1,1,1.623-1.623,1.623,1.623,0,0,0,3.245,0A4.876,4.876,0,0,0,36.754,24.944ZM20.04,3.245a1.623,1.623,0,1,1-1.623,1.623A1.624,1.624,0,0,1,20.04,3.245ZM4.949,31.156a1.623,1.623,0,1,1,1.623-1.623A1.624,1.624,0,0,1,4.949,31.156Zm25.314-1.623a4.851,4.851,0,0,0,.073.834l-6.353,3.464a4.862,4.862,0,0,0-7.864-.031L9.748,30.348a4.863,4.863,0,0,0-3.176-5.4v-9.61a1.615,1.615,0,0,0-.518-1.186,1.616,1.616,0,0,0-1.186-.518,1.623,1.623,0,1,1,1.623-1.623,1.623,1.623,0,1,0,3.245,0,4.884,4.884,0,0,0-.061-.766l6.444-3.492a4.862,4.862,0,0,0,7.864-.031l6.352,3.463A4.862,4.862,0,0,0,33.509,16.6v8.347A4.876,4.876,0,0,0,30.264,29.533Zm-6.1-9.241a5.112,5.112,0,1,0-8.255,0,7.953,7.953,0,0,0-3.685,5.181,2.7,2.7,0,0,0,2.636,3.249H25.218a2.7,2.7,0,0,0,2.636-3.249A7.954,7.954,0,0,0,24.168,20.292ZM20.04,15.416a1.866,1.866,0,1,1-1.866,1.866A1.868,1.868,0,0,1,20.04,15.416ZM15.592,25.477A4.715,4.715,0,0,1,20,22.394h.085a4.715,4.715,0,0,1,4.406,3.083Zm0,0"/></g></svg>