<svg xmlns="http://www.w3.org/2000/svg" xmlns:xlink="http://www.w3.org/1999/xlink" width="35.335" height="40.383" viewBox="0 0 35.335 40.383"><defs><clipPath id="a"><rect width="35.335" height="40.383" fill="none"/></clipPath></defs><g clip-path="url(#a)"><g transform="translate(0 0)"><path d="M66.392,7.231,50.223.133a1.577,1.577,0,0,0-1.273,0l-16.011,7.1A1.578,1.578,0,0,0,32,8.676V21.138a20.316,20.316,0,0,0,5.106,13.209A18.448,18.448,0,0,0,42.7,38.705a15.472,15.472,0,0,0,6.968,1.677,15.992,15.992,0,0,0,9.447-3.141,1.577,1.577,0,1,0-1.857-2.551,12.858,12.858,0,0,1-7.59,2.537c-7.6,0-14.513-7.669-14.513-16.09V9.7L49.592,3.3l14.588,6.4V21.138a16.7,16.7,0,0,1-2.413,8.5,1.577,1.577,0,0,0,2.712,1.612,19.855,19.855,0,0,0,2.856-10.113V8.676A1.578,1.578,0,0,0,66.392,7.231Z" transform="translate(-32 0)"/><path d="M141.934,150.59l-9.781,12.221-5.483-5.274a1.577,1.577,0,1,0-2.187,2.274l5.559,5.347.007.006a3.041,3.041,0,0,0,2.11.844l.127,0a3.044,3.044,0,0,0,2.162-1.019q.029-.033.056-.067l9.892-12.36a1.577,1.577,0,1,0-2.463-1.971Z" transform="translate(-116.743 -138.167)"/></g></g></svg>