<svg xmlns="http://www.w3.org/2000/svg" xmlns:xlink="http://www.w3.org/1999/xlink" width="40" height="40.526" viewBox="0 0 40 40.526"><defs><clipPath id="a"><rect width="40" height="40.526" fill="none"/></clipPath></defs><g clip-path="url(#a)"><path d="M31.219,35.308a1.583,1.583,0,0,1-.506,2.181,20.246,20.246,0,0,1-19.84.839A20.439,20.439,0,0,1,5.259,34.1V37.36a1.583,1.583,0,0,1-3.166,0V32.927A3.962,3.962,0,0,1,6.05,28.97H10.4a1.583,1.583,0,1,1,0,3.166H7.755A17.077,17.077,0,0,0,29.038,34.8,1.583,1.583,0,0,1,31.219,35.308Zm5.074-5.742a1.583,1.583,0,0,0-2.2.4c-.272.395-.566.784-.873,1.158a1.583,1.583,0,0,0,2.446,2.01c.363-.442.71-.9,1.033-1.369A1.583,1.583,0,0,0,36.293,29.567Zm2.36-7.521a1.584,1.584,0,0,0-1.834,1.285c-.083.474-.188.949-.312,1.412a1.583,1.583,0,1,0,3.059.816c.147-.551.271-1.116.371-1.679A1.583,1.583,0,0,0,38.653,22.045Zm-2.09-5.91c.117.466.215.944.292,1.419a1.583,1.583,0,1,0,3.125-.507c-.091-.563-.208-1.129-.346-1.681a1.583,1.583,0,1,0-3.071.769ZM10.963,5.723A17.077,17.077,0,0,1,32.245,8.39H29.638a1.583,1.583,0,0,0,0,3.166h4.274A3.962,3.962,0,0,0,37.87,7.6V3.245a1.583,1.583,0,1,0-3.166,0V6.387A20.44,20.44,0,0,0,29.128,2.2a20.246,20.246,0,0,0-19.84.839,1.583,1.583,0,1,0,1.675,2.687ZM3.708,10.96a1.583,1.583,0,0,0,2.2-.4c.273-.4.566-.785.873-1.158a1.583,1.583,0,1,0-2.446-2.01c-.362.441-.71.9-1.033,1.369A1.583,1.583,0,0,0,3.708,10.96ZM3.439,24.39c-.117-.467-.215-.944-.292-1.419a1.583,1.583,0,1,0-3.125.507c.091.563.208,1.129.346,1.681a1.583,1.583,0,1,0,3.071-.77Zm-2.09-5.91A1.582,1.582,0,0,0,3.182,17.2c.083-.474.188-.95.312-1.413a1.583,1.583,0,0,0-3.059-.815c-.147.551-.271,1.116-.371,1.679A1.583,1.583,0,0,0,1.348,18.481Zm28.527,1.782a9.894,9.894,0,1,1-9.894-9.894A9.905,9.905,0,0,1,29.875,20.263ZM23.9,14.8a19.482,19.482,0,0,1,.623,3.878h1.993A6.745,6.745,0,0,0,23.9,14.8ZM19.981,26.869a10.191,10.191,0,0,0,1.373-5.023H18.608A10.194,10.194,0,0,0,19.981,26.869Zm1.373-8.189a10.191,10.191,0,0,0-1.373-5.023,10.2,10.2,0,0,0-1.373,5.023Zm-7.911,0h1.993a19.459,19.459,0,0,1,.623-3.878A6.743,6.743,0,0,0,13.443,18.68Zm2.616,7.045a19.459,19.459,0,0,1-.623-3.878H13.443A6.743,6.743,0,0,0,16.059,25.725Zm10.46-3.878H24.526a19.482,19.482,0,0,1-.623,3.878A6.745,6.745,0,0,0,26.519,21.846Zm0,0" transform="translate(0)"/></g></svg>