<svg xmlns="http://www.w3.org/2000/svg" xmlns:xlink="http://www.w3.org/1999/xlink" width="38" height="38" viewBox="0 0 38 38"><defs><clipPath id="a"><rect width="38" height="38" fill="none"/></clipPath></defs><g clip-path="url(#a)"><path d="M36.763,19.563c-.028-.028-.057-.055-.087-.081l-9.985-8.5a7.813,7.813,0,0,0-5.063-1.863H21.6A7.761,7.761,0,0,0,16.107,11.4L14.76,12.751a1.491,1.491,0,0,1-2.078.021,1.44,1.44,0,0,1-.436-1.036A1.579,1.579,0,0,1,12.7,10.61l.034-.034,2.92-3.117a12.666,12.666,0,0,1,8.692-3.98l11.229,9.155a1.484,1.484,0,0,0,1.876-2.3L25.8.834A1.486,1.486,0,0,0,24.863.5a15.631,15.631,0,0,0-7.9,2.155A15.552,15.552,0,0,0,9.058.5a1.485,1.485,0,0,0-1.05.434L.435,8.5a1.484,1.484,0,1,0,2.1,2.1L9.658,3.483a12.577,12.577,0,0,1,4.654,1.133q-.425.391-.822.813l-2.906,3.1a4.565,4.565,0,0,0-1.307,3.234,4.439,4.439,0,0,0,7.582,3.086L18.206,13.5a4.81,4.81,0,0,1,3.406-1.418h.017a4.844,4.844,0,0,1,3.138,1.155L34.7,21.7a1.263,1.263,0,0,1-.034,1.75,1.27,1.27,0,0,1-1.784,0l-.3-.3a1.484,1.484,0,0,0-2.1,2.1l.3.3c.09.09.183.175.279.255a1.469,1.469,0,0,0,.14.165,1.262,1.262,0,1,1-1.784,1.784l-.012-.012-.492-.489a1.484,1.484,0,0,0-2.1,2.1l.339.339h0a1.5,1.5,0,0,1,.425,1,1.2,1.2,0,0,1-.319.894,1.276,1.276,0,0,1-1.792-.107c-.028-.028-.057-.055-.087-.08l-.223-.19a1.484,1.484,0,0,0-2.013,2.179,1.309,1.309,0,0,1,.39.912,1.2,1.2,0,0,1-.352.869,1.281,1.281,0,0,1-1.811-.027l-.21-.208a4.31,4.31,0,0,0-.96-4.621h0a4.39,4.39,0,0,0-1.976-1.145A4.222,4.222,0,0,0,14.4,24.35a4.166,4.166,0,0,0-1.227-2.638,4.21,4.21,0,0,0-2.649-1.222,4.227,4.227,0,0,0-7.195-2.66l-2.074,2-.019.018A4.227,4.227,0,0,0,3.466,27,4.219,4.219,0,0,0,4.7,30.137a4.056,4.056,0,0,0,2.9,1.188h.063a4.2,4.2,0,0,0,4.173,3.637c.091,0,.182,0,.273-.01A4.31,4.31,0,0,0,19.331,37.3,4.263,4.263,0,0,0,22.3,38.5a4.2,4.2,0,0,0,2.982-1.23,4.136,4.136,0,0,0,1.185-2.4,4.046,4.046,0,0,0,4.067-3.793,4.219,4.219,0,0,0,4-4.366,4.19,4.19,0,0,0,2.23-1.167A4.235,4.235,0,0,0,36.763,19.563ZM5.138,23.716l-.019.018a1.262,1.262,0,0,1-1.792-1.777l2.071-2,.019-.018A1.261,1.261,0,0,1,7.311,21.6c-.039.036-.078.072-.115.109L5.673,23.2Zm3.41,4.263a1.277,1.277,0,0,1-1.749.059,1.264,1.264,0,0,1,0-1.78l.951-.932,1.537-1.484.019-.018c.04-.04.078-.081.116-.122a1.263,1.263,0,0,1,1.657.11,1.155,1.155,0,0,1,.008,1.684ZM12.76,31.6l-.006.006a1.262,1.262,0,1,1-1.786-1.782l2.175-2.152.006-.006a1.262,1.262,0,0,1,1.787,1.782ZM18.1,34.3l-.019.019-.8.828a1.337,1.337,0,0,1-1.881-.008,1.377,1.377,0,0,1-.4-.966,1.291,1.291,0,0,1,.373-.936l.891-.891a1.208,1.208,0,0,1,.862-.355,1.387,1.387,0,0,1,.977.419A1.338,1.338,0,0,1,18.1,34.3Zm0,0" transform="translate(0 -0.5)"/></g></svg>