<svg xmlns="http://www.w3.org/2000/svg" xmlns:xlink="http://www.w3.org/1999/xlink" width="40" height="40" viewBox="0 0 40 40"><defs><clipPath id="a"><rect width="40" height="40" fill="none"/></clipPath></defs><g clip-path="url(#a)"><path d="M8.595,22.609H31.407a6.257,6.257,0,0,0,6.25-6.25V2.063A1.562,1.562,0,0,0,36.094.5H3.907A1.562,1.562,0,0,0,2.345,2.063v14.3A6.257,6.257,0,0,0,8.595,22.609ZM5.47,3.625H34.532V16.359a3.128,3.128,0,0,1-3.125,3.125H8.595A3.128,3.128,0,0,1,5.47,16.359ZM26.642,14.8V8.313a1.562,1.562,0,1,1,3.125,0V14.8a1.562,1.562,0,1,1-3.125,0Zm-5.469,0V11.437a1.563,1.563,0,0,1,3.125,0V14.8a1.563,1.563,0,1,1-3.125,0Zm-5.469,0V9.875a1.563,1.563,0,1,1,3.125,0V14.8a1.563,1.563,0,1,1-3.125,0Zm-5.469,0V8.313a1.563,1.563,0,0,1,3.125,0V14.8a1.563,1.563,0,1,1-3.125,0ZM39.946,37.371a1.563,1.563,0,0,0-3.061,0H28.141a4.539,4.539,0,0,1,4.241-2.968h.082l.042,0a4.69,4.69,0,1,0-3.972-2.072,7.724,7.724,0,0,0-2.321,2.094,7.735,7.735,0,0,0-2.321-2.094,4.688,4.688,0,1,0-7.779,0,7.728,7.728,0,0,0-2.321,2.094,7.732,7.732,0,0,0-2.321-2.094,4.688,4.688,0,1,0-7.779,0A7.66,7.66,0,0,0,.056,37.371,2.6,2.6,0,0,0,2.594,40.5H37.408a2.6,2.6,0,0,0,2.538-3.129ZM19.96,34.406h.082a4.539,4.539,0,0,1,4.241,2.968H15.719A4.539,4.539,0,0,1,19.96,34.406Zm12.463-6.25a1.563,1.563,0,1,1-1.563,1.563A1.564,1.564,0,0,1,32.423,28.156ZM20,28.156a1.563,1.563,0,1,1-1.563,1.563A1.564,1.564,0,0,1,20,28.156Zm-12.422,0a1.563,1.563,0,1,1-1.563,1.563A1.564,1.564,0,0,1,7.579,28.156ZM3.3,37.375a4.54,4.54,0,0,1,4.242-2.968H7.62a4.54,4.54,0,0,1,4.242,2.968Zm0,0" transform="translate(-0.001 -0.5)"/></g></svg>