<svg xmlns="http://www.w3.org/2000/svg" width="40" height="40" viewBox="0 0 40 40"><path d="M40,38.438A1.562,1.562,0,0,1,38.438,40H23.125a1.562,1.562,0,0,1-1.562-1.562V9.3H20a1.562,1.562,0,0,1-1.562-1.562V6.172H9.063V7.734A1.562,1.562,0,0,1,7.5,9.3H5.938V38.438A1.562,1.562,0,0,1,4.375,40H1.563a1.563,1.563,0,0,1,0-3.125h1.25V7.734A1.562,1.562,0,0,1,4.375,6.172H5.938V4.609A1.562,1.562,0,0,1,7.5,3.047h4.688V1.563a1.563,1.563,0,0,1,3.125,0V3.047H20a1.562,1.562,0,0,1,1.563,1.563V6.172h1.585a1.554,1.554,0,0,1,.887.239l9.914,6.235a6.889,6.889,0,0,1,3.238,5.862v5.865a1.563,1.563,0,0,1-3.125,0V18.51a3.78,3.78,0,0,0-1.777-3.217l-7.6-4.778V36.875h3.047v-2.5a1.563,1.563,0,0,1,3.125,0v2.5h3.2V32.109a1.563,1.563,0,0,1,3.125,0v4.766h1.25A1.562,1.562,0,0,1,40,38.438ZM10.547,18.75a1.562,1.562,0,0,0-1.562,1.563v1.563a1.563,1.563,0,0,0,3.125,0V20.313A1.562,1.562,0,0,0,10.547,18.75Zm6.25,0a1.562,1.562,0,0,0-1.562,1.563v1.563a1.563,1.563,0,0,0,3.125,0V20.313A1.562,1.562,0,0,0,16.8,18.75Zm-6.25,7.031a1.562,1.562,0,0,0-1.562,1.563v1.563a1.563,1.563,0,0,0,3.125,0V27.344A1.562,1.562,0,0,0,10.547,25.781Zm6.25,0a1.562,1.562,0,0,0-1.562,1.563v1.563a1.563,1.563,0,0,0,3.125,0V27.344A1.562,1.562,0,0,0,16.8,25.781Zm0,7.031a1.562,1.562,0,0,0-1.562,1.563v1.563a1.563,1.563,0,0,0,3.125,0V34.375A1.562,1.562,0,0,0,16.8,32.813Zm14.063-12.5a1.563,1.563,0,0,0-3.125,0v1.563a1.563,1.563,0,0,0,3.125,0ZM29.3,25.781a1.562,1.562,0,0,0-1.562,1.563v1.563a1.563,1.563,0,0,0,3.125,0V27.344A1.562,1.562,0,0,0,29.3,25.781Zm-18.75,7.031a1.562,1.562,0,0,0-1.562,1.563v1.563a1.563,1.563,0,0,0,3.125,0V34.375A1.562,1.562,0,0,0,10.547,32.813Zm0-21.094a1.562,1.562,0,0,0-1.562,1.563v1.563a1.563,1.563,0,0,0,3.125,0V13.281A1.562,1.562,0,0,0,10.547,11.719Zm6.25,0a1.562,1.562,0,0,0-1.562,1.563v1.563a1.563,1.563,0,0,0,3.125,0V13.281A1.562,1.562,0,0,0,16.8,11.719Zm0,0" fill="#25ae60"/></svg>