<svg xmlns="http://www.w3.org/2000/svg" width="40" height="40" viewBox="0 0 40 40"><g fill="#25ae60"><circle cx="1.562" cy="1.562" r="1.562" transform="translate(18.438 6.953)"/><path d="M39.717,37.542l-3.828-5.469a1.563,1.563,0,0,0-1.28-.666h-6.25V17.188a1.953,1.953,0,1,1,3.906,0v8.047a1.562,1.562,0,0,0,3.125,0V15.156h3.047A1.562,1.562,0,0,0,40,13.594V9.375a1.562,1.562,0,0,0-.954-1.439L20.569.124a1.563,1.563,0,0,0-1.219,0L.952,7.937A1.562,1.562,0,0,0,0,9.375v4.219a1.562,1.562,0,0,0,1.562,1.562H4.14V32.033l-.03.04L.282,37.542A1.562,1.562,0,0,0,1.562,40H38.437a1.562,1.562,0,0,0,1.28-2.459ZM3.125,12.031V10.409L19.962,3.26l16.913,7.151v1.62Zm22.109,5.156V31.406H21.328V17.188a1.953,1.953,0,0,1,3.906,0Zm-7.031,0V31.406H14.3V17.188a1.953,1.953,0,1,1,3.906,0Zm-7.031,0V31.406H7.265V17.188a1.953,1.953,0,0,1,3.906,0ZM4.563,36.875,6.2,34.531H33.8l1.641,2.344Z"/></g></svg>