<svg xmlns="http://www.w3.org/2000/svg" width="23.106" height="27.706" viewBox="0 0 23.106 27.706"><path d="M65.455,6.479,62.61,1.668a1.082,1.082,0,0,0-.542-.459A23.809,23.809,0,0,0,54.134,0a25.784,25.784,0,0,0-8.1,1.2,1.082,1.082,0,0,0-.568.475L42.645,6.537a1.082,1.082,0,0,0,.077,1.2l5.363,7a7.846,7.846,0,0,0,9.142,12.286,1.082,1.082,0,1,0-.884-1.976,5.674,5.674,0,1,1,3.052-3.326,1.082,1.082,0,0,0,2.045.71,7.846,7.846,0,0,0-1.395-7.6L65.39,7.678A1.082,1.082,0,0,0,65.455,6.479Zm-15.74,6.827L44.881,7,46.623,3.99,52.6,12.143A7.8,7.8,0,0,0,49.715,13.307Zm2.012-6.015a17.336,17.336,0,0,1,2.57-.2,1.082,1.082,0,0,0,0-2.165,18.892,18.892,0,0,0-3.582.349,1.077,1.077,0,0,0-.358.149L48.423,2.786a26.341,26.341,0,0,1,5.71-.621A24.782,24.782,0,0,1,59.8,2.8l-5.609,7.85Zm6.708,6.08a7.807,7.807,0,0,0-2.7-1.17L61.531,4.1,63.225,6.96Z" transform="translate(-42.499)" fill="#fff"/><path d="M214.1,309.035a1.082,1.082,0,0,0,1.082-1.082v-4.87a1.082,1.082,0,0,0-1.848-.765l-1.515,1.515a1.082,1.082,0,0,0,1.2,1.757v2.363A1.082,1.082,0,0,0,214.1,309.035Z" transform="translate(-202.354 -285.658)" fill="#fff"/></svg>