<svg xmlns="http://www.w3.org/2000/svg" width="30.571" height="26.264" viewBox="0 0 30.571 26.264"><path d="M90.876,125.026a7.938,7.938,0,0,1-.37-1.182,1.194,1.194,0,0,0-2.323.556,10.283,10.283,0,0,0,.485,1.537,3.221,3.221,0,0,0,2.975,2.007h3.777a3.2,3.2,0,0,0,2.936-1.923,10.338,10.338,0,0,0,.9-4.059,10.111,10.111,0,0,0-.914-4.013,3.218,3.218,0,0,0-2.936-1.887H91.673a3.161,3.161,0,0,0-2.987,2.019c-.063.163-.139.369-.22.609H81.245a1.194,1.194,0,0,0-.857.362l-2.051,2.113a1.194,1.194,0,0,0,.005,1.669l2.09,2.126a1.194,1.194,0,0,0,.852.357h3.582a1.194,1.194,0,1,0,0-2.388H81.784l-.921-.937.887-.914h7.612a1.194,1.194,0,0,0,1.16-.91,9.876,9.876,0,0,1,.393-1.23.783.783,0,0,1,.761-.487H95.4a.815.815,0,0,1,.759.474,7.712,7.712,0,0,1,.706,3.044,7.94,7.94,0,0,1-.7,3.1.815.815,0,0,1-.75.489H91.646A.85.85,0,0,1,90.876,125.026Z" transform="translate(-73.342 -111.284)" fill="#fff"/><path d="M29.376,48a1.194,1.194,0,0,0,1.194-1.194V40.838a4.782,4.782,0,0,0-4.777-4.777H4.777A4.782,4.782,0,0,0,0,40.838V52.779a4.782,4.782,0,0,0,4.777,4.777h9.314v2.381H9.912a1.194,1.194,0,0,0,0,2.388H20.659a1.194,1.194,0,0,0,0-2.388h-4.18V57.556h9.314a4.782,4.782,0,0,0,4.777-4.777,1.194,1.194,0,1,0-2.388,0,2.391,2.391,0,0,1-2.388,2.388H4.777a2.391,2.391,0,0,1-2.388-2.388V40.838a2.391,2.391,0,0,1,2.388-2.388H25.794a2.391,2.391,0,0,1,2.388,2.388v5.971A1.194,1.194,0,0,0,29.376,48Z" transform="translate(0 -36.061)" fill="#fff"/><circle cx="1.194" cy="1.194" r="1.194" transform="translate(19.883 9.494)" fill="#fff"/></svg>