<svg xmlns="http://www.w3.org/2000/svg" width="26" height="26" viewBox="0 0 26 26"><path d="M257.84,134.921a3.047,3.047,0,1,0,4.309,0A3.05,3.05,0,0,0,257.84,134.921Zm2.873,2.873a1.015,1.015,0,1,1,0-1.436A1.017,1.017,0,0,1,260.713,137.793Z" transform="translate(-243.901 -127.224)" fill="#fff"/><path d="M25.168.873A2.88,2.88,0,0,0,22.809.015a22.823,22.823,0,0,0-5.2,1.135A15.4,15.4,0,0,0,11.873,4.6l-.01.01-.206.208L.7,8.366A1.016,1.016,0,0,0,.3,10.051L5.256,15a5.044,5.044,0,0,0-2.841,1.428C1.6,17.248.969,18.9.49,21.476.158,23.266.026,24.835.021,24.9A1.016,1.016,0,0,0,1.033,26c.028,0,.056,0,.084,0,.066-.005,1.635-.137,3.425-.47C7.12,25.048,8.77,24.419,9.586,23.6a5.044,5.044,0,0,0,1.429-2.846L15.966,25.7a1.016,1.016,0,0,0,1.689-.42L21.03,14.315a1.016,1.016,0,0,0-.672-1.269l-.051-.013a1.015,1.015,0,0,0-1.122.219l-6.365,6.437L6.263,13.139,12.85,6.5a1.011,1.011,0,0,0,.176-.177l.274-.276C16.31,3.1,20.676,2.27,23.011,2.036a.851.851,0,0,1,.7.257.893.893,0,0,1,.247.738,20.005,20.005,0,0,1-1.775,6.221,1.016,1.016,0,1,0,1.823.9A22.052,22.052,0,0,0,25.978,3.28,2.914,2.914,0,0,0,25.168.873Zm-7.205,16.5-1.754,5.7-1.953-1.951Zm-10.918.489a.783.783,0,0,1,.973-.1L8.255,18a.783.783,0,0,1-.1.973,4.763,4.763,0,0,1-1.586.469A4.742,4.742,0,0,1,7.045,17.864Zm0,3.554a7.387,7.387,0,0,0,1.872-.548,3.02,3.02,0,0,1-.767,1.3c-.768.768-3.632,1.382-5.975,1.677.295-2.343.909-5.208,1.677-5.975a3.023,3.023,0,0,1,1.3-.769,7.428,7.428,0,0,0-.554,1.859c-.155.82-.218,1.542-.22,1.572a1.016,1.016,0,0,0,1.012,1.1c.027,0,.054,0,.08,0S6.22,21.569,7.044,21.418ZM4.826,11.7,2.909,9.787,8.535,7.966Z" transform="translate(-0.001 0)" fill="#fff"/><circle cx="1.016" cy="1.016" r="1.016" transform="translate(19.043 4.926)" fill="#fff"/></svg>