<svg xmlns="http://www.w3.org/2000/svg" xmlns:xlink="http://www.w3.org/1999/xlink" width="30" height="28.652" viewBox="0 0 30 28.652"><defs><clipPath id="a"><rect width="30" height="28.653" fill="none"/></clipPath></defs><g clip-path="url(#a)"><path d="M29.455,20.741,23.687,16.1a1.519,1.519,0,0,0-2.476,1.172v7.692a1.463,1.463,0,0,0,1.478,1.461,1.446,1.446,0,0,0,.992-.395l1.352-1.251L26.6,27.995a1.172,1.172,0,0,0,2.106-1.029l-1.569-3.21.207-.1,1.528-.367A1.454,1.454,0,0,0,29.455,20.741Zm-5.9,2.215V19l3.032,2.439a2.385,2.385,0,0,0-.242.1l-2.261,1.071A2.347,2.347,0,0,0,23.555,22.956ZM26.484,0H3.516A3.519,3.519,0,0,0,0,3.516V22.969a4.693,4.693,0,0,0,4.688,4.688H17.637a1.172,1.172,0,0,0,0-2.344H4.688a2.347,2.347,0,0,1-2.344-2.344V7.09H27.656v8.73a1.172,1.172,0,0,0,2.344,0V3.516A3.519,3.519,0,0,0,26.484,0ZM21.738,2.344a1.172,1.172,0,1,1-1.172,1.172A1.173,1.173,0,0,1,21.738,2.344ZM27.6,3.516a1.172,1.172,0,1,1-1.172-1.172A1.173,1.173,0,0,1,27.6,3.516Zm-25.254,0A1.173,1.173,0,0,1,3.516,2.344H18.424a3.508,3.508,0,0,0,.021,2.4H2.344Zm16.7,14.722v.557A3.218,3.218,0,0,1,16.229,22v.679a1.172,1.172,0,1,1-2.344,0v-.647a2.921,2.921,0,0,1-1.948-.829,2.86,2.86,0,0,1-.866-2.063,1.172,1.172,0,0,1,2.344,0,.553.553,0,0,0,.58.55H15.74a.907.907,0,0,0,.959-.894v-.557a.958.958,0,0,0-.959-.955H14.667a3.308,3.308,0,0,1-3.3-3.313v-.158a3.227,3.227,0,0,1,.973-2.326,3.273,3.273,0,0,1,1.542-.848V9.844a1.172,1.172,0,1,1,2.344,0V10.6a2.9,2.9,0,0,1,2.4,2.827,1.172,1.172,0,1,1-2.344,0,.57.57,0,0,0-.607-.534H14.667a.916.916,0,0,0-.952.92v.158a.962.962,0,0,0,.952.97H15.74A3.3,3.3,0,0,1,19.043,18.237Zm0,0" fill="#333"/></g></svg>