<svg width="40" height="40" viewBox="0 0 40 40" fill="none" xmlns="http://www.w3.org/2000/svg"><path d="M36.841 4.86036C35.8242 3.90169 34.6264 3.15563 33.3175 2.6659C32.0087 2.17616 30.6153 1.95262 29.219 2.00836C27.5733 1.99303 25.9469 2.36406 24.4706 3.09159C22.9944 3.81913 21.7094 4.88289 20.719 6.19736C20.468 6.51536 20.242 6.83336 20.039 7.14436C19.839 6.83736 19.626 6.52336 19.384 6.20936C18.3859 4.87791 17.0856 3.80275 15.5904 3.07252C14.0951 2.34228 12.4477 1.97788 10.784 2.00936C9.38725 1.95308 7.99332 2.17627 6.68396 2.66584C5.37461 3.15541 4.17619 3.9015 3.159 4.86036C1.063 6.95036 0 10.0084 0 13.9354C0 17.7524 2.232 22.3354 6.635 27.5464C9.7059 31.124 13.1147 34.3972 16.814 37.3204C17.7242 38.0301 18.8453 38.4156 19.9995 38.4156C21.1537 38.4156 22.2748 38.0301 23.185 37.3204C24.085 36.6204 25.946 35.1144 28.208 32.9704C28.357 32.8293 28.4767 32.6602 28.5604 32.4728C28.644 32.2854 28.6899 32.0834 28.6955 31.8783C28.7011 31.6732 28.6662 31.4689 28.5928 31.2773C28.5195 31.0857 28.4091 30.9103 28.268 30.7614C28.1269 30.6124 27.9578 30.4926 27.7704 30.409C27.5831 30.3253 27.3811 30.2794 27.1759 30.2739C26.9708 30.2683 26.7666 30.3032 26.5749 30.3765C26.3833 30.4499 26.208 30.5603 26.059 30.7014C23.892 32.7544 22.125 34.1844 21.265 34.8544C20.9035 35.1365 20.4581 35.2897 19.9995 35.2897C19.5409 35.2897 19.0955 35.1365 18.734 34.8544C15.2048 32.0657 11.9528 28.9433 9.023 25.5304C5.164 20.9604 3.123 16.9504 3.123 13.9304C3.123 6.65536 7.287 5.13036 10.779 5.13036C16.786 5.13036 18.418 10.9004 18.487 11.1554C18.487 11.1634 18.487 11.1704 18.494 11.1774C18.504 11.2134 18.515 11.2484 18.528 11.2834C18.533 11.2984 18.538 11.3124 18.544 11.3274C18.557 11.3614 18.571 11.3944 18.587 11.4274L18.607 11.4684C18.624 11.5014 18.642 11.5334 18.661 11.5684L18.681 11.6004C18.703 11.6354 18.727 11.6694 18.753 11.7004L18.765 11.7164C18.921 11.9183 19.1243 12.0789 19.357 12.1839C19.5896 12.2889 19.8445 12.3352 20.0992 12.3186C20.3539 12.302 20.6006 12.2231 20.8177 12.0888C21.0347 11.9545 21.2155 11.7689 21.344 11.5484V11.5484C21.365 11.5114 21.385 11.4744 21.403 11.4354L21.42 11.3994C21.4327 11.3707 21.4447 11.3414 21.456 11.3114C21.465 11.2874 21.474 11.2624 21.482 11.2384C21.49 11.2144 21.49 11.2164 21.494 11.2054C21.8869 10.0639 22.4735 8.99869 23.228 8.05636C23.9273 7.13441 24.8335 6.38966 25.8734 5.88212C26.9133 5.37457 28.0579 5.11844 29.215 5.13436C32.708 5.13436 36.871 6.66136 36.871 13.9344C36.871 16.8484 34.971 20.6224 31.215 25.1504C31.0841 25.3083 30.9855 25.4906 30.925 25.6866C30.8645 25.8827 30.8432 26.0887 30.8624 26.293C30.8815 26.4973 30.9407 26.6958 31.0365 26.8772C31.1324 27.0587 31.263 27.2194 31.421 27.3504C31.579 27.4813 31.7612 27.5798 31.9573 27.6403C32.1533 27.7008 32.3594 27.7221 32.5637 27.703C32.768 27.6839 32.9665 27.6247 33.1479 27.5288C33.3293 27.433 33.4901 27.3023 33.621 27.1444C37.911 21.9694 39.996 17.6444 39.996 13.9344C40 10.0084 38.937 6.95036 36.841 4.86036Z" fill="#25AE60"/></svg>