<svg width="40" height="40" viewBox="0 0 40 40" fill="none" xmlns="http://www.w3.org/2000/svg"><g clip-path="url(#clip0)"><path d="M28.264 24.755L29.187 20.278C29.2337 20.0509 29.2293 19.8162 29.1741 19.5909C29.1189 19.3657 29.0143 19.1556 28.8678 18.9758C28.7214 18.796 28.5367 18.6511 28.3273 18.5515C28.1179 18.4519 27.8889 18.4001 27.657 18.4H15.085C14.8451 17.2287 14.208 16.1762 13.2814 15.4205C12.3548 14.6648 11.1956 14.2524 10 14.253C9.59244 14.2633 9.20504 14.4325 8.92043 14.7244C8.63582 15.0163 8.47653 15.4078 8.47653 15.8155C8.47653 16.2232 8.63582 16.6147 8.92043 16.9066C9.20504 17.1985 9.59244 17.3677 10 17.378C10.5077 17.3777 10.9977 17.5645 11.3764 17.9026C11.7551 18.2407 11.996 18.7065 12.053 19.211C12.059 19.263 12.067 19.311 12.078 19.365L13.259 24.813V24.825C13.4879 25.8661 14.0668 26.7973 14.8992 27.4634C15.7315 28.1294 16.767 28.49 17.833 28.485H23.673C24.7492 28.4814 25.7918 28.1092 26.6271 27.4306C27.4624 26.7519 28.0401 25.8077 28.264 24.755V24.755ZM25.2 24.118C25.1249 24.4682 24.9324 24.7823 24.6543 25.008C24.3761 25.2338 24.0292 25.3576 23.671 25.359H17.831C17.4765 25.3604 17.1322 25.2406 16.8552 25.0194C16.5782 24.7982 16.3851 24.489 16.308 24.143L15.74 21.524H25.735L25.2 24.118ZM35.313 2H4.688C3.44507 2.00132 2.25343 2.49566 1.37455 3.37455C0.495661 4.25343 0.00132353 5.44507 0 6.688L0 32.625C0.00185277 34.282 0.660928 35.8707 1.83263 37.0424C3.00433 38.2141 4.59297 38.8731 6.25 38.875H33.75C35.407 38.8731 36.9957 38.2141 38.1674 37.0424C39.3391 35.8707 39.9981 34.282 40 32.625C39.9897 32.2174 39.8205 31.83 39.5286 31.5454C39.2367 31.2608 38.8452 31.1015 38.4375 31.1015C38.0298 31.1015 37.6383 31.2608 37.3464 31.5454C37.0545 31.83 36.8853 32.2174 36.875 32.625C36.8739 33.4535 36.5444 34.2477 35.9585 34.8335C35.3727 35.4194 34.5785 35.7489 33.75 35.75H6.25C5.42152 35.7489 4.62728 35.4194 4.04146 34.8335C3.45564 34.2477 3.12606 33.4535 3.125 32.625V11.453H36.875V24.813C36.8853 25.2206 37.0545 25.608 37.3464 25.8926C37.6383 26.1772 38.0298 26.3365 38.4375 26.3365C38.8452 26.3365 39.2367 26.1772 39.5286 25.8926C39.8205 25.608 39.9897 25.2206 40 24.813V6.688C39.9987 5.44524 39.5045 4.25375 38.6258 3.3749C37.7471 2.49604 36.5558 2.00159 35.313 2V2ZM28.984 5.125C29.2932 5.1248 29.5955 5.2163 29.8526 5.38793C30.1098 5.55955 30.3103 5.80359 30.4287 6.08917C30.5472 6.37476 30.5783 6.68905 30.5181 6.99231C30.4579 7.29557 30.3091 7.57416 30.0906 7.79285C29.872 8.01154 29.5935 8.1605 29.2903 8.22089C28.9871 8.28128 28.6728 8.25039 28.3871 8.13212C28.1014 8.01385 27.8573 7.81352 27.6855 7.55646C27.5137 7.2994 27.422 6.99717 27.422 6.688C27.4223 6.27372 27.5869 5.87647 27.8797 5.58344C28.1726 5.2904 28.5697 5.12553 28.984 5.125V5.125ZM36.8 6.688C36.8002 6.99722 36.7087 7.29955 36.537 7.55673C36.3653 7.81392 36.1212 8.01441 35.8356 8.13283C35.55 8.25126 35.2356 8.28229 34.9323 8.22202C34.629 8.16174 34.3504 8.01286 34.1318 7.79421C33.9131 7.57556 33.7643 7.29697 33.704 6.99368C33.6437 6.6904 33.6747 6.37605 33.7932 6.0904C33.9116 5.80476 34.1121 5.56066 34.3693 5.389C34.6265 5.21733 34.9288 5.1258 35.238 5.126C35.6521 5.12653 36.0491 5.29127 36.3419 5.58408C36.6347 5.8769 36.7995 6.27389 36.8 6.688V6.688ZM3.128 6.688C3.12826 6.27407 3.29261 5.87712 3.58502 5.58414C3.87744 5.29117 4.27407 5.12606 4.688 5.125H24.566C24.1989 6.16179 24.2088 7.29479 24.594 8.325H3.125L3.128 6.688ZM17.578 30.047C17.8872 30.0468 18.1895 30.1383 18.4466 30.3099C18.7038 30.4816 18.9043 30.7256 19.0227 31.0112C19.1412 31.2968 19.1723 31.6111 19.1121 31.9143C19.0519 32.2176 18.9031 32.4962 18.6846 32.7149C18.466 32.9335 18.1875 33.0825 17.8843 33.1429C17.5811 33.2033 17.2668 33.1724 16.9811 33.0541C16.6954 32.9358 16.4513 32.7355 16.2795 32.4785C16.1077 32.2214 16.016 31.9192 16.016 31.61C16.0159 31.4048 16.0562 31.2016 16.1346 31.0119C16.2131 30.8223 16.3281 30.65 16.4731 30.5049C16.6182 30.3597 16.7904 30.2446 16.98 30.166C17.1696 30.0874 17.3728 30.047 17.578 30.047V30.047ZM23.906 30.047C24.2152 30.0468 24.5175 30.1383 24.7746 30.3099C25.0318 30.4816 25.2323 30.7256 25.3507 31.0112C25.4692 31.2968 25.5003 31.6111 25.4401 31.9143C25.3799 32.2176 25.2311 32.4962 25.0126 32.7149C24.794 32.9335 24.5155 33.0825 24.2123 33.1429C23.9091 33.2033 23.5948 33.1724 23.3091 33.0541C23.0234 32.9358 22.7793 32.7355 22.6075 32.4785C22.4357 32.2214 22.344 31.9192 22.344 31.61C22.3439 31.4048 22.3842 31.2016 22.4626 31.0119C22.5411 30.8223 22.6561 30.65 22.8011 30.5049C22.9462 30.3597 23.1184 30.2446 23.308 30.166C23.4976 30.0874 23.7008 30.047 23.906 30.047Z" fill="#25AE60"/></g><defs><clipPath id="clip0"><path fill="#fff" transform="translate(0 2)" d="M0 0H40V36.875H0z"/></clipPath></defs></svg>