<svg xmlns="http://www.w3.org/2000/svg" width="40" height="40" viewBox="0 0 40 40"><path d="M1.7,23.835a1.583,1.583,0,0,0,.193-.012,1.562,1.562,0,0,0,1.36-1.741q-.032-.259-.056-.519H5.392a1.563,1.563,0,1,0,0-3.125H3.2a16.773,16.773,0,0,1,3.023-8.168,30.905,30.905,0,0,0,4.187,1.115,36.228,36.228,0,0,0-.786,6.78,1.562,1.562,0,0,0,1.523,1.6h.04a1.563,1.563,0,0,0,1.561-1.524,32.892,32.892,0,0,1,.753-6.366c1.581.2,3.239.32,4.938.368v2.6a1.563,1.563,0,1,0,3.125,0v-2.6c1.72-.048,3.4-.176,5-.376a32.494,32.494,0,0,1,.768,6.45A1.562,1.562,0,0,0,28.9,19.844h.037a1.562,1.562,0,0,0,1.526-1.6,35.739,35.739,0,0,0-.8-6.874,30.655,30.655,0,0,0,4.125-1.1A16.775,16.775,0,0,1,36.8,18.438H34.22a1.563,1.563,0,0,0,0,3.125H36.8q-.024.26-.056.519a1.562,1.562,0,0,0,1.36,1.741,1.579,1.579,0,0,0,.193.012,1.563,1.563,0,0,0,1.549-1.372A20.262,20.262,0,0,0,40,20,20,20,0,0,0,5.859,5.858,19.868,19.868,0,0,0,0,20a20.262,20.262,0,0,0,.15,2.463A1.563,1.563,0,0,0,1.7,23.835ZM8.456,7.705a16.947,16.947,0,0,1,4.488-3.031q-.251.412-.488.857a20.017,20.017,0,0,0-1.211,2.837C10.257,8.179,9.323,7.957,8.456,7.705ZM14.4,8.838c1.011-2.69,2.42-4.6,4.043-5.357V9.118C17.049,9.077,15.694,8.983,14.4,8.838Zm7.168.279V3.483a8.081,8.081,0,0,1,3.271,3.535,16.315,16.315,0,0,1,.82,1.814C24.341,8.98,22.969,9.076,21.564,9.117Zm6.03-3.567q-.237-.445-.49-.855A16.93,16.93,0,0,1,31.546,7.7c-.852.248-1.77.466-2.74.653A20.027,20.027,0,0,0,27.594,5.55Zm8.8,26.332a4.922,4.922,0,1,0-7.953-.006l-.074.044a10.543,10.543,0,0,0-3.864-3.1,5.859,5.859,0,1,0-9.008,0,10.545,10.545,0,0,0-3.865,3.1l-.074-.044a4.922,4.922,0,1,0-7.953.006A7.658,7.658,0,0,0,.057,36.871,2.6,2.6,0,0,0,2.594,40h9.971l.031,0,.057,0H27.3l.088,0,.049,0h9.971a2.6,2.6,0,0,0,2.538-3.129A7.66,7.66,0,0,0,36.4,31.883Zm-3.974-4.7a1.8,1.8,0,1,1-1.8,1.8A1.8,1.8,0,0,1,32.423,27.188ZM17.267,25.078A2.734,2.734,0,1,1,20,27.813,2.737,2.737,0,0,1,17.267,25.078ZM20,30.937a7.507,7.507,0,0,1,7.309,5.924.058.058,0,0,1-.015.013H12.69A7.506,7.506,0,0,1,20,30.937ZM7.58,27.188a1.8,1.8,0,1,1-1.8,1.8A1.8,1.8,0,0,1,7.58,27.188Zm-.041,6.718h.082a4.492,4.492,0,0,1,2.478.743,10.5,10.5,0,0,0-.474,1.614,3.156,3.156,0,0,0-.064.612H3.3A4.54,4.54,0,0,1,7.539,33.906Zm22.9,2.969a3.073,3.073,0,0,0-.063-.631c-.009-.042-.019-.083-.031-.123a10.493,10.493,0,0,0-.442-1.471,4.494,4.494,0,0,1,2.477-.743h.082a4.539,4.539,0,0,1,4.242,2.968Zm0,0" transform="translate(-.001)" fill="#25ae60"/></svg>