<svg xmlns="http://www.w3.org/2000/svg" width="20" height="19.762" viewBox="0 0 20 19.762"><g transform="translate(0)"><circle cx="9.881" cy="9.881" r="9.881" transform="translate(0.238)" fill="#f0f0f0"/><g transform="translate(0 0.987)"><path d="M372.926,34.361A9.946,9.946,0,0,0,367.3,25.4V43.32A9.946,9.946,0,0,0,372.926,34.361Z" transform="translate(-353.034 -25.402)" fill="#d80027"/><path d="M0,34.361A9.946,9.946,0,0,0,5.622,43.32V25.4A9.946,9.946,0,0,0,0,34.361Z" transform="translate(0 -25.402)" fill="#d80027"/><path d="M172.146,182.411l1.73-.865-.865-.432v-.865l-1.73.865.865-1.73h-.865l-.865-1.3-.865,1.3h-.865l.865,1.73-1.73-.865v.865l-.865.432,1.73.865-.432.865h1.73v1.3h.865v-1.3h1.73Z" transform="translate(-160.471 -172.155)" fill="#d80027"/></g></g></svg>