<svg xmlns="http://www.w3.org/2000/svg" width="20" height="20" viewBox="0 0 20 20"><circle cx="9.935" cy="9.935" r="9.935" fill="#f0f0f0"/><g transform="translate(0.344 0.344)"><path d="M10.542,100.142a9.964,9.964,0,0,0-1.723,3.48h5.2Z" transform="translate(-8.819 -96.575)" fill="#0052b4"/><path d="M375.207,103.623a9.965,9.965,0,0,0-1.723-3.48l-3.48,3.48Z" transform="translate(-355.896 -96.576)" fill="#0052b4"/><path d="M8.819,322.784a9.965,9.965,0,0,0,1.723,3.479l3.479-3.479Z" transform="translate(-8.819 -310.52)" fill="#0052b4"/><path d="M326.262,10.542a9.964,9.964,0,0,0-3.48-1.723v5.2Z" transform="translate(-310.518 -8.819)" fill="#0052b4"/><path d="M100.142,373.484a9.964,9.964,0,0,0,3.48,1.723v-5.2Z" transform="translate(-96.575 -355.896)" fill="#0052b4"/><path d="M103.621,8.819a9.965,9.965,0,0,0-3.479,1.723l3.479,3.479Z" transform="translate(-96.575 -8.819)" fill="#0052b4"/><path d="M322.783,375.207a9.964,9.964,0,0,0,3.479-1.723l-3.479-3.479Z" transform="translate(-310.519 -355.896)" fill="#0052b4"/><path d="M370.005,322.784l3.48,3.479a9.964,9.964,0,0,0,1.723-3.479Z" transform="translate(-355.896 -310.52)" fill="#0052b4"/></g><path d="M19.915,8.7H11.3V.085A10.092,10.092,0,0,0,8.7.085V8.7H.085a10.092,10.092,0,0,0,0,2.609H8.7v8.611a10.092,10.092,0,0,0,2.609,0V11.3h8.611a10.092,10.092,0,0,0,0-2.609Z" fill="#d80027"/><path d="M322.783,322.783h0l4.462,4.462q.308-.308.588-.642l-3.82-3.82h-1.23Z" transform="translate(-310.174 -310.174)" fill="#d80027"/><path d="M79.442,322.784h0l-4.462,4.462q.308.308.642.588l3.82-3.82Z" transform="translate(-72.051 -310.175)" fill="#d80027"/><path d="M64.983,79.442h0L60.521,74.98q-.308.308-.588.642l3.82,3.82h1.23Z" transform="translate(-57.592 -72.051)" fill="#d80027"/><path d="M322.783,64.984h0l4.462-4.462q-.308-.308-.642-.588l-3.82,3.82Z" transform="translate(-310.174 -57.593)" fill="#d80027"/></svg>