<svg xmlns="http://www.w3.org/2000/svg" width="50" height="49.999" viewBox="0 0 50 49.999"><path d="M17.667,8.528a1.953,1.953,0,0,1-.012-2.762l3.788-3.822a4.865,4.865,0,0,1,6.918,0l3.788,3.822a1.953,1.953,0,1,1-2.774,2.75L26.855,5.974v12.69a1.953,1.953,0,0,1-3.906,0V5.974L20.43,8.515A1.953,1.953,0,0,1,17.667,8.528Zm15.527,9.766a1.954,1.954,0,0,0,2.762-.012l2.519-2.542v8.979a1.953,1.953,0,1,0,3.906,0V15.739L44.9,18.281a1.953,1.953,0,0,0,2.774-2.75L43.887,11.71a4.864,4.864,0,0,0-6.917,0l-3.788,3.822A1.954,1.954,0,0,0,33.194,18.293ZM5,18.379l2.519-2.542v8.881a1.953,1.953,0,1,0,3.906,0V15.837l2.519,2.542a1.953,1.953,0,0,0,2.774-2.75l-3.788-3.822a4.864,4.864,0,0,0-6.917,0L2.226,15.629A1.953,1.953,0,1,0,5,18.379ZM49.269,49.305A3.225,3.225,0,0,1,46.758,50.5H34.3c-.021,0-.041,0-.061,0-.037,0-.074,0-.111,0H15.814l-.071,0-.039,0H3.24a3.245,3.245,0,0,1-3.172-3.91A9.574,9.574,0,0,1,4.5,40.353a6.152,6.152,0,1,1,9.941-.008l.092.056a13.181,13.181,0,0,1,4.831-3.875,7.324,7.324,0,1,1,11.26,0A13.178,13.178,0,0,1,35.46,40.4l.093-.055a6.15,6.15,0,1,1,5.076,2.534l-.052,0h-.1a5.618,5.618,0,0,0-3.1.929,13.178,13.178,0,0,1,.552,1.838c.015.051.028.1.039.154a3.816,3.816,0,0,1,.079.789H46.1a1.953,1.953,0,0,1,3.826,0A3.242,3.242,0,0,1,49.269,49.305ZM38.281,36.73a2.246,2.246,0,1,0,2.246-2.246A2.248,2.248,0,0,0,38.281,36.73ZM25,35.265a3.418,3.418,0,1,0-3.418-3.418A3.422,3.422,0,0,0,25,35.265ZM15.86,46.593H34.116a.09.09,0,0,0,.019-.016,9.338,9.338,0,0,0-18.275.016ZM7.226,36.73a2.246,2.246,0,1,0,2.246-2.246A2.249,2.249,0,0,0,7.226,36.73ZM4.118,46.593h7.83a3.939,3.939,0,0,1,.08-.764,13.124,13.124,0,0,1,.592-2.018,5.613,5.613,0,0,0-3.1-.929h-.1A5.675,5.675,0,0,0,4.118,46.593Zm0,0" transform="translate(0.001 -0.5)" fill="#212121"/></svg>