<svg xmlns="http://www.w3.org/2000/svg" width="26" height="24.983" viewBox="0 0 26 24.983"><path d="M22.953.5H3.047A3.05,3.05,0,0,0,0,3.547V20.406a4.067,4.067,0,0,0,4.063,4.063H15.539a1.016,1.016,0,1,0,0-2.031H4.063a2.034,2.034,0,0,1-2.031-2.031V6.645H23.969v9.344a1.016,1.016,0,0,0,2.031,0V3.547A3.05,3.05,0,0,0,22.953.5ZM18.84,2.531a1.016,1.016,0,1,1-1.016,1.016A1.017,1.017,0,0,1,18.84,2.531Zm5.078,1.016A1.016,1.016,0,1,1,22.9,2.531,1.017,1.017,0,0,1,23.918,3.547Zm-21.887,0A1.017,1.017,0,0,1,3.047,2.531H15.968a3.041,3.041,0,0,0,.018,2.082H2.031ZM19.545,14.708a1.016,1.016,0,0,0-.424-.255l-4-1.214a1.015,1.015,0,0,0-1.274,1.243l1.135,4.1a1.014,1.014,0,0,0,.26.446L20.8,24.592a3.047,3.047,0,0,0,4.31-4.308ZM16.3,15.719l1.987.6,3.754,3.762L20.6,21.522l-3.733-3.74Zm7.371,7.436a1.016,1.016,0,0,1-1.436,0l-.2-.2,1.436-1.436.2.2A1.017,1.017,0,0,1,23.671,23.156Zm0,0" transform="translate(0 -0.5)" fill="#fff"/></svg>