<svg xmlns="http://www.w3.org/2000/svg" width="26" height="25.95" viewBox="0 0 26 25.95"><path d="M15.357,14.488a1.014,1.014,0,1,0,0-2.027H13.988V8.443c1.136-.032,2.246-.117,3.3-.251a19.685,19.685,0,0,1,.561,3.245,1.014,1.014,0,1,0,2.019-.181A22.043,22.043,0,0,0,19.3,7.863a19.744,19.744,0,0,0,2.652-.716,10.888,10.888,0,0,1,2.018,6.327,11.119,11.119,0,0,1-.088,1.393,1.014,1.014,0,1,0,2.011.255,13.151,13.151,0,0,0,.1-1.648A12.974,12.974,0,0,0,13.025.5h-.051A12.975,12.975,0,0,0,3.8,22.649a12.89,12.89,0,0,0,9.175,3.8h.051a13.08,13.08,0,0,0,2.253-.195,1.014,1.014,0,0,0,.824-1.173,1,1,0,0,0-.028-.116,1.013,1.013,0,0,0-1.6-1.088,2.829,2.829,0,0,1-.49.313V20.483c.322.009.641.023.957.04a1.014,1.014,0,0,0,.114-2.024c-.353-.02-.711-.035-1.071-.044V14.488h1.368Zm-5.7,6.991q-.194-.388-.367-.808c.858-.1,1.755-.16,2.675-.187v3.679A5.844,5.844,0,0,1,9.652,21.479Zm-1.813.907a11.7,11.7,0,0,0,.591,1.048,10.983,10.983,0,0,1-2.987-2.021c.555-.163,1.154-.307,1.788-.43A14.523,14.523,0,0,0,7.839,22.386ZM4.008,19.747a10.882,10.882,0,0,1-1.933-5.259H6a22.752,22.752,0,0,0,.631,4.549A19.747,19.747,0,0,0,4.008,19.747ZM4.036,7.162a19.819,19.819,0,0,0,2.609.7A22.718,22.718,0,0,0,6,12.461H2.075A10.883,10.883,0,0,1,4.036,7.162Zm7.925-.747c-.911-.027-1.8-.089-2.655-.185q.164-.393.346-.759a5.844,5.844,0,0,1,2.309-2.684ZM7.839,4.564a14.467,14.467,0,0,0-.59,1.354C6.625,5.8,6.034,5.657,5.486,5.5A10.993,10.993,0,0,1,8.43,3.516,11.676,11.676,0,0,0,7.839,4.564ZM8.651,8.19c1.059.135,2.171.221,3.31.253v4.018H8.03A20.45,20.45,0,0,1,8.651,8.19Zm5.337-1.775V2.783A6.578,6.578,0,0,1,16.636,6.23C15.786,6.326,14.9,6.388,13.988,6.415Zm3.716-2.6c-.068-.114-.137-.225-.207-.334a10.981,10.981,0,0,1,3.005,2c-.56.164-1.165.309-1.8.433A13.4,13.4,0,0,0,17.7,3.817ZM11.961,18.456c-1.145.032-2.261.118-3.323.253a20.48,20.48,0,0,1-.608-4.221h3.931Zm13.524.769L20.03,14.858a1.438,1.438,0,0,0-2.342,1.1V23.2a1.39,1.39,0,0,0,2.336,1l1.285-1.184,1.4,2.862a1.014,1.014,0,1,0,1.821-.89l-1.394-2.853.357-.168,1.445-.345A1.366,1.366,0,0,0,25.485,19.225ZM23.021,20a2.017,2.017,0,0,0-.393.138l-2.138,1.008a2.02,2.02,0,0,0-.509.343l-.265.244V17.2l3.448,2.76Zm0,0" transform="translate(0 -0.5)" fill="#fff"/></svg>