<svg xmlns="http://www.w3.org/2000/svg" width="26" height="26" viewBox="0 0 26 26"><path d="M24.985,20.922A1.016,1.016,0,0,0,26,19.906v-1.06a4.378,4.378,0,0,0-4.374-4.373h-.642a4.037,4.037,0,0,0,.546-2.031V5.383a1.016,1.016,0,0,0-1.016-1.016h-3.4V3.961a3.961,3.961,0,1,0-7.922,0v.406H5.485A1.016,1.016,0,0,0,4.47,5.383v6.851A3.047,3.047,0,0,0,.914,17.1l.021.02,5.173,4.789A14.542,14.542,0,0,0,16.214,26h8.771a1.016,1.016,0,0,0,0-2.031H16.214a12.448,12.448,0,0,1-8.7-3.522L7.5,20.431,2.328,15.646a1.016,1.016,0,0,1,.711-1.732h.01a1.009,1.009,0,0,1,.711.291l.026.025,5.862,5.357a3.039,3.039,0,0,0,2.236.98h5.078a1.016,1.016,0,0,0,0-2.031H11.884a1.01,1.01,0,0,1-.567-.173l-.018-.018-.206-.188a1.015,1.015,0,0,1,.791-1.652h9.744a2.345,2.345,0,0,1,2.342,2.342v1.06A1.016,1.016,0,0,0,24.985,20.922ZM11.224,3.961a1.93,1.93,0,1,1,3.859,0v.406H11.224ZM6.5,6.4H9.192V7.465a1.016,1.016,0,1,0,2.031,0V6.4h3.859V7.465a1.016,1.016,0,1,0,2.031,0V6.4H19.5v6.043a2.034,2.034,0,0,1-2.031,2.031H8.532A1.916,1.916,0,0,1,6.5,12.594Zm0,0" transform="translate(-0.001)" fill="#fff"/></svg>