<svg xmlns="http://www.w3.org/2000/svg" width="26" height="26.047" viewBox="0 0 26 26.047"><path d="M19.7,5.433a1.016,1.016,0,0,1,1.016-1.015H23a1.016,1.016,0,0,1,1.016,1.015v5.992a1.016,1.016,0,1,1-2.031,0V6.449H20.713A1.016,1.016,0,0,1,19.7,5.433ZM25.641,24.8a2.521,2.521,0,0,1-2.188,1.245H2.588A2.573,2.573,0,0,1,.357,24.772a2.486,2.486,0,0,1-.052-2.481L2.078,19.05V5.433A1.016,1.016,0,0,1,3.093,4.418H4.972a1.016,1.016,0,1,1,0,2.031H4.109V18.43H21.983V16.554a1.016,1.016,0,0,1,2.031,0v2.682l1.67,3.056A2.513,2.513,0,0,1,25.641,24.8ZM23.9,23.265l-1.533-2.8H3.621l-1.533,2.8a.465.465,0,0,0,.016.471.565.565,0,0,0,.484.279H9.443a1.015,1.015,0,0,1,1.013-.962h5.027a1.015,1.015,0,0,1,1.013.962h6.957a.5.5,0,0,0,.441-.25A.49.49,0,0,0,23.9,23.265ZM7.629,3.564l.5-.941a1.016,1.016,0,0,1,1.226-.486l1.168.4a4.03,4.03,0,0,1,.851-.511L11.59.833a1.016,1.016,0,0,1,1-.833h.889a1.016,1.016,0,0,1,1,.836l.216,1.2.059.029.061.03.128.066.042.023c.047.026.094.053.14.081l.012.007c.107.065.211.134.311.209l1.093-.429a1.016,1.016,0,0,1,1.225.4l.554.862a1.015,1.015,0,0,1-.238,1.356l-1.008.77c0,.019,0,.038,0,.058s0,.04,0,.06c0,.062,0,.123,0,.185s0,.1,0,.153l.977.7a1.016,1.016,0,0,1,.332,1.242l-.411.909a1.015,1.015,0,0,1-1.26.541l-1.134-.4a4.024,4.024,0,0,1-.916.563l-.187,1.168a1.016,1.016,0,0,1-1,.855h-.914a1.016,1.016,0,0,1-1-.836l-.216-1.2-.062-.03-.056-.027c-.046-.022-.09-.045-.135-.069l-.03-.016a4.041,4.041,0,0,1-.483-.311l-1.1.438a1.016,1.016,0,0,1-1.263-.453l-.476-.862A1.016,1.016,0,0,1,8,6.822l.973-.771c0-.021,0-.043,0-.065s0-.041,0-.062c0-.062,0-.124,0-.186s0-.128,0-.193l-1-.66A1.015,1.015,0,0,1,7.629,3.564Zm3.36,2.174c0,.039,0,.078,0,.117,0,.011,0,.021,0,.032q0,.042.008.085c0,.012,0,.024,0,.036s.008.054.013.081,0,.024.007.036c.005.028.012.055.018.083a2.029,2.029,0,0,0,.512.936l.055.055.038.036c.027.025.054.048.082.071l.046.036.05.038.051.037.059.039.081.049.051.028.057.029.064.029.076.032.074.028.049.017.085.026a2.029,2.029,0,0,0,1.043.012c.043-.011.084-.023.126-.037l.044-.015.088-.033.073-.031.067-.031.062-.032.056-.032c.032-.018.063-.038.093-.057l.049-.033.056-.04c.029-.022.058-.045.086-.068l.041-.035c.026-.023.051-.046.076-.07l.02-.019c.032-.031.062-.064.091-.1a2.026,2.026,0,0,0,.462-.925c0-.021.008-.042.012-.062s0-.025.007-.038c0-.031.009-.062.012-.093,0,0,0-.006,0-.009a2.014,2.014,0,0,0,.011-.21c0-.039,0-.078,0-.117,0-.011,0-.021,0-.032,0-.029,0-.057-.008-.085,0-.012,0-.024,0-.036,0-.028-.008-.055-.013-.083l-.006-.034c-.006-.03-.012-.059-.019-.089a2.031,2.031,0,0,0-.512-.932l-.067-.067-.025-.024c-.029-.026-.058-.051-.088-.076l-.038-.03L14.2,4.089l-.043-.03q-.045-.03-.091-.058l-.048-.028-.058-.032-.052-.027-.074-.034-.067-.028L13.7,3.823l-.049-.016-.085-.025a2.019,2.019,0,0,0-1.079,0L12.4,3.8l-.061.021-.052.019q-.065.025-.127.054l-.025.011-.078.04-.018.01a2.033,2.033,0,0,0-.233.15l-.009.007q-.07.053-.135.111l-.012.011c-.022.019-.043.04-.063.06l-.019.019a2.03,2.03,0,0,0-.53.966q-.012.052-.021.1v.007c-.006.035-.011.071-.015.106V5.51c0,.034-.007.067-.009.1,0,0,0,.009,0,.014C10.991,5.663,10.989,5.7,10.989,5.738Zm0,0" transform="translate(0.001)" fill="#fff"/></svg>