<svg xmlns="http://www.w3.org/2000/svg" width="26" height="23.969" viewBox="0 0 26 23.969"><path d="M22.953,0H3.047A3.05,3.05,0,0,0,0,3.047V19.906a4.067,4.067,0,0,0,4.063,4.063H21.937A4.067,4.067,0,0,0,26,19.906a1.016,1.016,0,1,0-2.031,0,2.034,2.034,0,0,1-2.031,2.031H4.063a2.034,2.034,0,0,1-2.031-2.031V6.145H23.969v8.684a1.016,1.016,0,0,0,2.031,0V3.047A3.05,3.05,0,0,0,22.953,0ZM18.84,2.031a1.016,1.016,0,1,1-1.016,1.016A1.017,1.017,0,0,1,18.84,2.031Zm5.078,1.016A1.016,1.016,0,1,1,22.9,2.031,1.017,1.017,0,0,1,23.918,3.047Zm-21.887,0A1.017,1.017,0,0,1,3.047,2.031H15.968a3.041,3.041,0,0,0,.018,2.082H2.031ZM13,10.057a3.365,3.365,0,0,0-2.412-.916,3.393,3.393,0,0,0-2.424.974,3.585,3.585,0,0,0-1,2.569c0,2.131,1.849,3.492,3.334,4.585a10,10,0,0,1,1.719,1.451,1.016,1.016,0,0,0,1.574,0,10,10,0,0,1,1.719-1.451c1.485-1.094,3.334-2.455,3.334-4.585a3.585,3.585,0,0,0-1-2.569A3.566,3.566,0,0,0,13,10.057Zm3.809,2.627c0,1.1-1.274,2.042-2.507,2.949-.443.326-.894.658-1.3,1.011-.407-.352-.859-.685-1.3-1.011-1.233-.907-2.507-1.846-2.507-2.949a1.366,1.366,0,0,1,1.4-1.512,1.223,1.223,0,0,1,1.152.532,1.713,1.713,0,0,1,.248.67,1.014,1.014,0,0,0,2.025,0,1.713,1.713,0,0,1,.248-.67,1.223,1.223,0,0,1,1.152-.532A1.366,1.366,0,0,1,16.809,12.684Zm0,0" fill="#fff"/></svg>