<svg xmlns="http://www.w3.org/2000/svg" width="179.114" height="20.54" viewBox="0 0 179.114 20.54"><path d="M8.086.234Q6.6.234,5.135.143A20.857,20.857,0,0,1,2.08-.286V-17.758a25.944,25.944,0,0,1,2.73-.351q1.482-.117,2.756-.117a18.769,18.769,0,0,1,3.159.247,7.482,7.482,0,0,1,2.483.845,4.427,4.427,0,0,1,1.625,1.573,4.6,4.6,0,0,1,.585,2.4,3.817,3.817,0,0,1-2.08,3.406,4.258,4.258,0,0,1,2.34,1.768A5.086,5.086,0,0,1,16.3-5.46,4.844,4.844,0,0,1,14.235-1.2Q12.168.234,8.086.234ZM6.032-7.852V-3.2q.442.052.962.078t1.144.026a7.026,7.026,0,0,0,2.938-.52,1.928,1.928,0,0,0,1.118-1.924,1.885,1.885,0,0,0-.936-1.781A5.483,5.483,0,0,0,8.58-7.852Zm0-3.094H8.008a5.5,5.5,0,0,0,2.678-.481,1.665,1.665,0,0,0,.806-1.547,1.589,1.589,0,0,0-.832-1.534,5.347,5.347,0,0,0-2.444-.442q-.52,0-1.118.013t-1.066.065Zm21.5.7q-.52-.13-1.222-.273A7.551,7.551,0,0,0,24.8-10.66a7,7,0,0,0-.871.065,5.126,5.126,0,0,0-.767.143V0H19.292V-12.948a23.272,23.272,0,0,1,2.457-.689,14.157,14.157,0,0,1,3.159-.325q.312,0,.754.039t.884.1q.442.065.884.156a4.16,4.16,0,0,1,.754.221Zm7.7,7.54q.572,0,1.092-.026a7.6,7.6,0,0,0,.832-.078V-5.746q-.234-.052-.7-.1a7.818,7.818,0,0,0-.858-.052,7.678,7.678,0,0,0-1.027.065,2.683,2.683,0,0,0-.845.247,1.45,1.45,0,0,0-.572.494,1.376,1.376,0,0,0-.208.78,1.329,1.329,0,0,0,.611,1.261A3.376,3.376,0,0,0,35.23-2.7ZM34.918-14.04a8.971,8.971,0,0,1,2.86.39,4.442,4.442,0,0,1,1.833,1.118,4.109,4.109,0,0,1,.975,1.768,8.721,8.721,0,0,1,.286,2.314V-.39q-.832.182-2.314.429A22.236,22.236,0,0,1,34.97.286,11.376,11.376,0,0,1,32.565.052a5.22,5.22,0,0,1-1.859-.767,3.51,3.51,0,0,1-1.2-1.391,4.8,4.8,0,0,1-.416-2.106,3.991,3.991,0,0,1,.481-2.028,3.7,3.7,0,0,1,1.287-1.326,5.816,5.816,0,0,1,1.846-.715A10.356,10.356,0,0,1,34.866-8.5a12.252,12.252,0,0,1,1.339.065,5.96,5.96,0,0,1,.949.169v-.364a2.144,2.144,0,0,0-.6-1.586,2.9,2.9,0,0,0-2.08-.6,13.244,13.244,0,0,0-1.95.143,8.365,8.365,0,0,0-1.664.4l-.494-3.12q.338-.1.845-.221t1.105-.208q.6-.091,1.261-.156T34.918-14.04Zm9.464.832a21.593,21.593,0,0,1,2.548-.533,20.938,20.938,0,0,1,3.276-.247,7.979,7.979,0,0,1,2.9.455,4.354,4.354,0,0,1,1.833,1.287A5.015,5.015,0,0,1,55.9-10.27a10.513,10.513,0,0,1,.286,2.548V0H52.312V-7.254a5.222,5.222,0,0,0-.494-2.652,2.015,2.015,0,0,0-1.846-.78q-.416,0-.884.039t-.832.091V0H44.382ZM63-6.942A4.746,4.746,0,0,0,63.8-4.056,2.784,2.784,0,0,0,66.2-2.964q.52,0,.962-.039t.728-.091V-10.14a3.366,3.366,0,0,0-.949-.39,4.573,4.573,0,0,0-1.183-.156Q63-10.686,63-6.942Zm8.762,6.5q-.52.156-1.2.3T69.147.1q-.741.1-1.508.169T66.17.338a8.6,8.6,0,0,1-3.016-.494,6.059,6.059,0,0,1-2.236-1.417,6.149,6.149,0,0,1-1.391-2.236,8.533,8.533,0,0,1-.481-2.951,10.1,10.1,0,0,1,.416-3,6.535,6.535,0,0,1,1.2-2.275,5.119,5.119,0,0,1,1.911-1.43,6.407,6.407,0,0,1,2.587-.494,6.085,6.085,0,0,1,1.443.156,7.81,7.81,0,0,1,1.287.442v-6.188l3.874-.624Zm2.99-6.4a8.061,8.061,0,0,1,.481-2.8,6.679,6.679,0,0,1,1.391-2.288,6.638,6.638,0,0,1,2.21-1.547A7.292,7.292,0,0,1,81.8-14.04a9.566,9.566,0,0,1,2,.195,9.745,9.745,0,0,1,1.768.559l-.806,3.094a9.764,9.764,0,0,0-1.2-.364,6.251,6.251,0,0,0-1.456-.156,3.069,3.069,0,0,0-2.561,1.066A4.389,4.389,0,0,0,78.7-6.838a4.546,4.546,0,0,0,.793,2.86,3.321,3.321,0,0,0,2.769,1.014,9.5,9.5,0,0,0,1.508-.13,6.411,6.411,0,0,0,1.482-.416L85.8-.338a9.088,9.088,0,0,1-1.69.494,11.148,11.148,0,0,1-2.236.208A8.416,8.416,0,0,1,78.65-.2a6.074,6.074,0,0,1-2.223-1.521,5.934,5.934,0,0,1-1.274-2.275A9.66,9.66,0,0,1,74.75-6.838ZM92.274,0H88.4V-13.676h3.874Zm.364-17.628a2.126,2.126,0,0,1-.689,1.677,2.37,2.37,0,0,1-1.625.611,2.37,2.37,0,0,1-1.625-.611,2.126,2.126,0,0,1-.689-1.677,2.126,2.126,0,0,1,.689-1.677,2.37,2.37,0,0,1,1.625-.611,2.37,2.37,0,0,1,1.625.611A2.126,2.126,0,0,1,92.638-17.628Zm3.146.546,3.874-.624v4.03h4.654v3.224H99.658v4.81a3.826,3.826,0,0,0,.429,1.95,1.841,1.841,0,0,0,1.729.728,7.4,7.4,0,0,0,1.287-.117,6.634,6.634,0,0,0,1.209-.325l.546,3.016A11.022,11.022,0,0,1,103.3.1a9.09,9.09,0,0,1-2.106.208,6.933,6.933,0,0,1-2.626-.429,4.119,4.119,0,0,1-1.664-1.2,4.452,4.452,0,0,1-.871-1.859,10.974,10.974,0,0,1-.247-2.418ZM112.164-2.7q.572,0,1.092-.026a7.6,7.6,0,0,0,.832-.078V-5.746q-.234-.052-.7-.1a7.818,7.818,0,0,0-.858-.052,7.678,7.678,0,0,0-1.027.065,2.683,2.683,0,0,0-.845.247,1.45,1.45,0,0,0-.572.494,1.377,1.377,0,0,0-.208.78,1.329,1.329,0,0,0,.611,1.261A3.376,3.376,0,0,0,112.164-2.7Zm-.312-11.336a8.972,8.972,0,0,1,2.86.39,4.442,4.442,0,0,1,1.833,1.118,4.109,4.109,0,0,1,.975,1.768,8.721,8.721,0,0,1,.286,2.314V-.39q-.832.182-2.314.429A22.236,22.236,0,0,1,111.9.286,11.376,11.376,0,0,1,109.5.052a5.22,5.22,0,0,1-1.859-.767,3.51,3.51,0,0,1-1.2-1.391,4.8,4.8,0,0,1-.416-2.106,3.991,3.991,0,0,1,.481-2.028A3.7,3.7,0,0,1,107.8-7.566a5.816,5.816,0,0,1,1.846-.715A10.356,10.356,0,0,1,111.8-8.5a12.252,12.252,0,0,1,1.339.065,5.96,5.96,0,0,1,.949.169v-.364a2.144,2.144,0,0,0-.6-1.586,2.9,2.9,0,0,0-2.08-.6,13.244,13.244,0,0,0-1.95.143,8.365,8.365,0,0,0-1.664.4l-.494-3.12q.338-.1.845-.221t1.105-.208q.6-.091,1.261-.156T111.852-14.04Zm9.334-3.042,3.874-.624v4.03h4.654v3.224H125.06v4.81a3.826,3.826,0,0,0,.429,1.95,1.841,1.841,0,0,0,1.729.728,7.4,7.4,0,0,0,1.287-.117,6.633,6.633,0,0,0,1.209-.325L130.26-.39A11.022,11.022,0,0,1,128.7.1a9.09,9.09,0,0,1-2.106.208,6.933,6.933,0,0,1-2.626-.429,4.119,4.119,0,0,1-1.664-1.2,4.452,4.452,0,0,1-.871-1.859,10.974,10.974,0,0,1-.247-2.418ZM136.734,0H132.86V-13.676h3.874Zm.364-17.628a2.126,2.126,0,0,1-.689,1.677,2.37,2.37,0,0,1-1.625.611,2.37,2.37,0,0,1-1.625-.611,2.126,2.126,0,0,1-.689-1.677,2.126,2.126,0,0,1,.689-1.677,2.37,2.37,0,0,1,1.625-.611,2.37,2.37,0,0,1,1.625.611A2.126,2.126,0,0,1,137.1-17.628ZM153.166-6.864a8.893,8.893,0,0,1-.468,2.951,6.411,6.411,0,0,1-1.352,2.288,6.085,6.085,0,0,1-2.119,1.469,7.071,7.071,0,0,1-2.769.52,7,7,0,0,1-2.743-.52A6.084,6.084,0,0,1,141.6-1.625a6.726,6.726,0,0,1-1.378-2.288,8.468,8.468,0,0,1-.494-2.951,8.167,8.167,0,0,1,.507-2.938,6.663,6.663,0,0,1,1.4-2.262,6.306,6.306,0,0,1,2.132-1.456,6.864,6.864,0,0,1,2.691-.52,6.932,6.932,0,0,1,2.717.52,6.169,6.169,0,0,1,2.119,1.456A6.608,6.608,0,0,1,152.672-9.8,8.359,8.359,0,0,1,153.166-6.864Zm-3.952,0a4.87,4.87,0,0,0-.715-2.821,2.338,2.338,0,0,0-2.041-1.027A2.371,2.371,0,0,0,144.4-9.685a4.8,4.8,0,0,0-.728,2.821,4.93,4.93,0,0,0,.728,2.847,2.353,2.353,0,0,0,2.054,1.053A2.321,2.321,0,0,0,148.5-4.017,5,5,0,0,0,149.214-6.864Zm6.942-6.344a21.593,21.593,0,0,1,2.548-.533,20.938,20.938,0,0,1,3.276-.247,7.979,7.979,0,0,1,2.9.455,4.355,4.355,0,0,1,1.833,1.287,5.014,5.014,0,0,1,.962,1.976,10.513,10.513,0,0,1,.286,2.548V0h-3.874V-7.254a5.222,5.222,0,0,0-.494-2.652,2.015,2.015,0,0,0-1.846-.78q-.416,0-.884.039t-.832.091V0h-3.874ZM175.4-2.782A3.867,3.867,0,0,0,176.9-2.99a.8.8,0,0,0,.442-.806.987.987,0,0,0-.572-.819,10.87,10.87,0,0,0-1.742-.793,17.851,17.851,0,0,1-1.651-.7,4.853,4.853,0,0,1-1.261-.871,3.523,3.523,0,0,1-.806-1.209,4.476,4.476,0,0,1-.286-1.69,3.655,3.655,0,0,1,1.43-3.042,6.22,6.22,0,0,1,3.926-1.118,12.59,12.59,0,0,1,2.392.221,11.13,11.13,0,0,1,1.82.481l-.676,3.016a14.225,14.225,0,0,0-1.469-.416,7.984,7.984,0,0,0-1.781-.182q-1.82,0-1.82,1.014a1.047,1.047,0,0,0,.078.416.888.888,0,0,0,.312.351,4.438,4.438,0,0,0,.637.366q.4.2,1.027.432a15.825,15.825,0,0,1,2.106.931,5.022,5.022,0,0,1,1.313.99A3.059,3.059,0,0,1,181-5.24a5.239,5.239,0,0,1,.2,1.5,3.467,3.467,0,0,1-1.521,3.061,7.584,7.584,0,0,1-4.3,1.038,12.367,12.367,0,0,1-3.029-.312,12.28,12.28,0,0,1-1.677-.52l.65-3.146A12.707,12.707,0,0,0,173.342-3,9.861,9.861,0,0,0,175.4-2.782Z" transform="translate(-2.08 20.176)" fill="#333"/></svg>