<svg xmlns="http://www.w3.org/2000/svg" width="120" height="10.425" viewBox="0 0 120 10.425"><path d="M2.114-7.407V-17.554H5.661a3.722,3.722,0,0,1,1.749.364,2.426,2.426,0,0,1,1.026.976,2.763,2.763,0,0,1,.337,1.355,2.256,2.256,0,0,1-.23,1.08,1.84,1.84,0,0,1-.6.674,2.785,2.785,0,0,1-.81.367v.1a1.987,1.987,0,0,1,.936.327,2.374,2.374,0,0,1,.788.852A2.7,2.7,0,0,1,9.169-10.1,2.725,2.725,0,0,1,8.823-8.73a2.4,2.4,0,0,1-1.1.966,4.548,4.548,0,0,1-1.947.357ZM3.342-8.5H5.78a2.5,2.5,0,0,0,1.712-.468A1.49,1.49,0,0,0,8-10.1a1.823,1.823,0,0,0-.263-.954,1.924,1.924,0,0,0-.748-.7,2.364,2.364,0,0,0-1.15-.265h-2.5Zm0-4.6H5.622a2.12,2.12,0,0,0,1.407-.481A1.588,1.588,0,0,0,7.6-14.859,1.552,1.552,0,0,0,7.138-16a2.013,2.013,0,0,0-1.477-.468H3.342ZM11.61-7.407V-17.554h3.429a4.157,4.157,0,0,1,1.952.4,2.606,2.606,0,0,1,1.13,1.107,3.412,3.412,0,0,1,.367,1.6,3.286,3.286,0,0,1-.463,1.761A2.6,2.6,0,0,1,16.589-11.6l2.294,4.192H17.457l-2.141-3.969q-.124,0-.258,0h-2.22v3.964Zm1.229-5.074h2.18a2.386,2.386,0,0,0,1.739-.525,1.952,1.952,0,0,0,.52-1.437,2.05,2.05,0,0,0-.523-1.469A2.342,2.342,0,0,0,15-16.464h-2.16Zm9.337-5.074V-7.407H20.947V-17.554Zm9.813,3.171a3.2,3.2,0,0,0-1.058-1.581,2.875,2.875,0,0,0-1.836-.58,3.011,3.011,0,0,0-1.64.466,3.22,3.22,0,0,0-1.174,1.373,5.108,5.108,0,0,0-.436,2.225,5.058,5.058,0,0,0,.441,2.225A3.214,3.214,0,0,0,27.48-8.883a3.156,3.156,0,0,0,1.695.466,3.1,3.1,0,0,0,1.519-.364,2.628,2.628,0,0,0,1.038-1.031,3.307,3.307,0,0,0,.4-1.578H29.452v-1.09h3.865v1.09a4.3,4.3,0,0,1-.533,2.18,3.7,3.7,0,0,1-1.467,1.434,4.414,4.414,0,0,1-2.143.508A4.382,4.382,0,0,1,26.809-7.9a4.252,4.252,0,0,1-1.586-1.8,6.3,6.3,0,0,1-.567-2.775,6.3,6.3,0,0,1,.567-2.775,4.287,4.287,0,0,1,1.571-1.8,4.215,4.215,0,0,1,2.3-.634,4.43,4.43,0,0,1,1.942.419A4.008,4.008,0,0,1,32.49-16.11a4,4,0,0,1,.768,1.727Zm3.847,6.977V-17.554h1.229v4.519h5.411v-4.519h1.229V-7.407H42.476v-4.539H37.065v4.539Zm10.19-9.058v-1.09h7.611v1.09H50.446v9.058H49.217v-9.058ZM60.3-7.407V-17.554H63.73a3.952,3.952,0,0,1,1.955.429,2.716,2.716,0,0,1,1.127,1.157,3.563,3.563,0,0,1,.367,1.625,3.614,3.614,0,0,1-.364,1.63,2.726,2.726,0,0,1-1.122,1.167,3.878,3.878,0,0,1-1.942.434H61.53v3.706Zm1.229-4.8h2.18a2.167,2.167,0,0,0,1.742-.614,2.287,2.287,0,0,0,.518-1.526,2.24,2.24,0,0,0-.52-1.519,2.221,2.221,0,0,0-1.759-.6H61.53Zm7.435,4.8H67.677L71.4-17.554h1.268L76.4-7.407H75.109l-1.021-2.874h-4.1Zm1.407-3.964H73.7l-1.625-4.578H72Zm6.285-5.094v-1.09h7.611v1.09H81.077v9.058H79.848v-9.058Zm9.377,0v-1.09h7.611v1.09H90.454v9.058H89.226v-9.058Zm9.932,9.058V-17.554h6.124v1.09H97.2v3.429h4.578v1.09H97.2V-8.5h4.975v1.09Zm8.763,0V-17.554h3.429a4.157,4.157,0,0,1,1.952.4,2.606,2.606,0,0,1,1.13,1.107,3.412,3.412,0,0,1,.367,1.6,3.286,3.286,0,0,1-.463,1.761,2.6,2.6,0,0,1-1.434,1.083L112-7.407h-1.427l-2.141-3.969q-.124,0-.258,0h-2.22v3.964Zm1.229-5.074h2.18a2.386,2.386,0,0,0,1.739-.525,1.952,1.952,0,0,0,.52-1.437,2.05,2.05,0,0,0-.523-1.469,2.342,2.342,0,0,0-1.757-.552h-2.16Zm16.155-5.074V-7.407h-1.189l-5.53-7.968h-.1v7.968h-1.229V-17.554h1.189l5.55,7.987h.1v-7.987Z" transform="translate(-2.114 17.693)"/></svg>