<svg xmlns="http://www.w3.org/2000/svg" width="120" height="23.466" viewBox="0 0 120 23.466"><g transform="translate(0 0)"><path d="M-241.186,247.831l-3.144-1.853-.225.365a3.275,3.275,0,0,1-2.891,1.684,3.543,3.543,0,0,1-3.621-3.621,3.543,3.543,0,0,1,3.621-3.621,3.251,3.251,0,0,1,2.891,1.684l.225.365,3.144-1.853-.281-.393a6.858,6.858,0,0,0-6.007-3.228,7.074,7.074,0,0,0-7.382,7.074,7.074,7.074,0,0,0,7.382,7.074,7.093,7.093,0,0,0,6.007-3.256Z" transform="translate(301.116 -232.589)"/><path d="M-242.13,251.718h4.323l1.291-3.2h6.484l1.291,3.2h4.351L-232.137,233h-3.874l1.039,2.5-7.158,16.225m8.9-11.34,1.74,4.407h-3.537Z" transform="translate(301.891 -232.855)"/><path d="M-223.618,251.745h3.789v-8.421h2.47v-3.537h-2.47v-1.656a1.4,1.4,0,0,1,1.375-1.488,2.676,2.676,0,0,1,1.067.2l.421.168,1.572-3.453-.421-.14a7.087,7.087,0,0,0-2.386-.393,5.325,5.325,0,0,0-4.1,1.628,5.382,5.382,0,0,0-1.319,3.649v1.516H-225.3v3.537h1.684Z" transform="translate(302.916 -232.853)"/><path d="M38.875,8.082V18.861H43V.026L34.889,6.146,26.749.026V18.833l4.126.028V8.082l4.014,2.975Z" transform="translate(1.63 0.002)"/><path d="M-209.322,237.361a7.045,7.045,0,0,0-7.354,7.046,7.045,7.045,0,0,0,7.354,7.046,7.841,7.841,0,0,0,5.839-2.835l-3.088-1.684a3.874,3.874,0,0,1-2.835,1.235,3.412,3.412,0,0,1-3.312-2.414h10.33v-.926a7.143,7.143,0,0,0-6.933-7.467Zm-3.312,5.333a3.026,3.026,0,0,1,2.947-2.021,3.182,3.182,0,0,1,3.06,2.049Z" transform="translate(303.442 -232.589)"/><path d="M-194.691,237.388a7.045,7.045,0,0,0-7.354,7.046,7.045,7.045,0,0,0,7.354,7.046,7.84,7.84,0,0,0,5.839-2.835l-3.088-1.684a3.874,3.874,0,0,1-2.835,1.235,3.412,3.412,0,0,1-3.312-2.414h10.33v-.926a7.124,7.124,0,0,0-6.933-7.467ZM-198,242.693a2.99,2.99,0,0,1,2.947-2.021,3.182,3.182,0,0,1,3.06,2.049Z" transform="translate(304.333 -232.588)"/><path d="M-189.028,236.779h1.6v.309h-.646v1.684h-.337v-1.684h-.618Z" transform="translate(305.126 -232.625)"/><path d="M-187.28,236.779h.477l.561,1.544.533-1.544h.477v1.993h-.337v-1.544l-.561,1.544h-.281l-.561-1.544v1.544h-.337v-1.993Z" transform="translate(305.231 -232.625)"/><path d="M10.189,4.716,0,0V18.751l10.189,4.716v-4.6L4.182,16.084V6.54l6.007,2.779Z" transform="translate(0)"/><path d="M9.6,4.716,19.822,0V18.751L9.6,23.466v-4.6l6.035-2.779V6.54L9.6,9.319Z" transform="translate(0.585)"/></g></svg>