<svg xmlns="http://www.w3.org/2000/svg" width="40" height="36.875" viewBox="0 0 40 36.875"><path d="M28.264,22.755l.923-4.477a1.563,1.563,0,0,0-1.53-1.878H15.085A5.188,5.188,0,0,0,10,12.253a1.563,1.563,0,0,0,0,3.125,2.065,2.065,0,0,1,2.053,1.833c.006.052.014.1.025.154l1.181,5.448,0,.012a4.661,4.661,0,0,0,4.574,3.66h5.84A4.71,4.71,0,0,0,28.264,22.755ZM25.2,22.118a1.57,1.57,0,0,1-1.529,1.241h-5.84a1.554,1.554,0,0,1-1.523-1.216l-.568-2.619h9.995ZM35.313,0H4.688A4.693,4.693,0,0,0,0,4.688V30.625a6.257,6.257,0,0,0,6.25,6.25h27.5A6.257,6.257,0,0,0,40,30.625a1.563,1.563,0,0,0-3.125,0A3.129,3.129,0,0,1,33.75,33.75H6.25a3.129,3.129,0,0,1-3.125-3.125V9.453h33.75V22.813a1.563,1.563,0,0,0,3.125,0V4.688A4.693,4.693,0,0,0,35.313,0ZM28.984,3.125a1.563,1.563,0,1,1-1.562,1.563A1.564,1.564,0,0,1,28.984,3.125ZM36.8,4.688a1.563,1.563,0,1,1-1.562-1.562A1.564,1.564,0,0,1,36.8,4.688Zm-33.672,0A1.564,1.564,0,0,1,4.688,3.125H24.566a4.678,4.678,0,0,0,.028,3.2H3.125ZM17.578,28.047a1.563,1.563,0,1,1-1.562,1.563A1.562,1.562,0,0,1,17.578,28.047Zm6.328,0a1.563,1.563,0,1,1-1.562,1.563A1.562,1.562,0,0,1,23.906,28.047Zm0,0" fill="#25ae60"/></svg>