<svg xmlns="http://www.w3.org/2000/svg" width="120" height="24.353" viewBox="0 0 120 24.353"><path d="M12.824-8.983,9.36-8.769A1.972,1.972,0,0,0,8.641-9.9a2.4,2.4,0,0,0-1.563-.471A2.821,2.821,0,0,0,5.59-10a1.091,1.091,0,0,0-.6.981,1.02,1.02,0,0,0,.386.826,3.141,3.141,0,0,0,1.346.542l2.469.5q3.935.808,3.943,3.695A3.729,3.729,0,0,1,12.349-1.1,5.13,5.13,0,0,1,10.2.472a8.169,8.169,0,0,1-3.135.564A7.362,7.362,0,0,1,2.743-.1,4.341,4.341,0,0,1,.869-3.183l3.721-.2a1.921,1.921,0,0,0,.822,1.261,2.946,2.946,0,0,0,1.656.426,2.928,2.928,0,0,0,1.6-.391,1.177,1.177,0,0,0,.617-.995q-.027-1.013-1.75-1.359L5.177-4.906Q1.216-5.7,1.233-8.8A3.6,3.6,0,0,1,2.81-11.913,7.067,7.067,0,0,1,7.015-13.05a6.75,6.75,0,0,1,4.072,1.092A4.224,4.224,0,0,1,12.824-8.983Zm6.484,1.865V.77H15.524V-17.42H19.2v6.954h.16a3.945,3.945,0,0,1,1.5-1.9,4.533,4.533,0,0,1,2.58-.688,4.5,4.5,0,0,1,3.428,1.368,5.222,5.222,0,0,1,1.288,3.766V.77H24.37V-7.242A2.765,2.765,0,0,0,23.735-9.2a2.319,2.319,0,0,0-1.8-.7,2.555,2.555,0,0,0-1.887.733A2.808,2.808,0,0,0,19.308-7.117ZM39.886-5.039v-7.834H43.67V.77H40.037V-1.708H39.9A4.037,4.037,0,0,1,38.363.219a4.524,4.524,0,0,1-2.607.728A4.34,4.34,0,0,1,32.421-.425a5.342,5.342,0,0,1-1.283-3.761v-8.686h3.784v8.011a2.759,2.759,0,0,0,.648,1.91,2.206,2.206,0,0,0,1.714.7A2.648,2.648,0,0,0,39.1-2.961,2.618,2.618,0,0,0,39.886-5.039Zm14.06-7.834v2.842H51.379v6.608a1.28,1.28,0,0,0,.355,1.057,1.465,1.465,0,0,0,.924.275,2.949,2.949,0,0,0,.533-.049l.409-.075L54.195.6q-.284.089-.8.209a6.68,6.68,0,0,1-1.252.147A4.847,4.847,0,0,1,48.835.063,3.547,3.547,0,0,1,47.6-2.925v-7.105H45.731v-2.842H47.6v-3.268h3.784v3.268Zm9.717,0v2.842H61.1v6.608a1.28,1.28,0,0,0,.355,1.057,1.465,1.465,0,0,0,.924.275,2.949,2.949,0,0,0,.533-.049l.409-.075L63.911.6q-.284.089-.8.209A6.68,6.68,0,0,1,61.86.956,4.847,4.847,0,0,1,58.551.063a3.547,3.547,0,0,1-1.239-2.989v-7.105H55.447v-2.842h1.865v-3.268H61.1v3.268ZM72.2,1.036A7.24,7.24,0,0,1,68.583.179a5.79,5.79,0,0,1-2.336-2.434,8.016,8.016,0,0,1-.817-3.735,7.975,7.975,0,0,1,.817-3.695,6.031,6.031,0,0,1,2.3-2.478,6.689,6.689,0,0,1,3.495-.888,6.884,6.884,0,0,1,3.255.764,5.577,5.577,0,0,1,2.3,2.3,7.893,7.893,0,0,1,.853,3.859v1.039h-9.29v.009A3.353,3.353,0,0,0,70-2.668a2.963,2.963,0,0,0,2.256.879,3.232,3.232,0,0,0,1.643-.4,2.174,2.174,0,0,0,.977-1.181l3.5.231A4.8,4.8,0,0,1,76.354-.1,7.09,7.09,0,0,1,72.2,1.036ZM69.169-7.428H74.9a2.784,2.784,0,0,0-.782-2.007,2.683,2.683,0,0,0-2.007-.79,2.786,2.786,0,0,0-2.069.817A2.948,2.948,0,0,0,69.169-7.428ZM80.929.77V-12.873H84.6v2.38h.142a3.545,3.545,0,0,1,1.252-1.923,3.307,3.307,0,0,1,2.025-.653,5.126,5.126,0,0,1,1.19.133v3.357a3.958,3.958,0,0,0-.737-.147,7.123,7.123,0,0,0-.862-.058A2.88,2.88,0,0,0,85.534-9a2.705,2.705,0,0,0-.822,2.047V.77Zm18.11-13.642v2.842H96.329V.77H92.546v-10.8H90.618v-2.842h1.927v-.986A4.136,4.136,0,0,1,93.82-17.18a4.746,4.746,0,0,1,3.2-1.092,8.83,8.83,0,0,1,1.594.133,11.023,11.023,0,0,1,1.079.24l-.666,2.842a4.728,4.728,0,0,0-.551-.133,3.575,3.575,0,0,0-.666-.062,1.451,1.451,0,0,0-1.159.386,1.63,1.63,0,0,0-.324,1.079v.915Zm6.093-4.547V.77h-3.784V-17.42Zm5.222,23.5a5.99,5.99,0,0,1-1.381-.138,5.392,5.392,0,0,1-.893-.28l.853-2.931a3.516,3.516,0,0,0,1.692.16,1.606,1.606,0,0,0,1.088-1.075l.249-.657-4.894-14.033h3.979l2.824,10.019h.142l2.851-10.019h4.006L115.54,2.333A6.06,6.06,0,0,1,113.7,5.024,5.046,5.046,0,0,1,110.353,6.081Z" transform="translate(-0.869 18.273)"/></svg>