<svg xmlns="http://www.w3.org/2000/svg" width="50" height="50" viewBox="0 0 50 50"><path d="M50,24.023v1.953a5.866,5.866,0,0,1-5.859,5.859h-.984a.653.653,0,0,0-.6.415l-.012.03a1.953,1.953,0,0,1-3.613-1.487l.013-.032a4.547,4.547,0,0,1,4.209-2.833h.984a1.955,1.955,0,0,0,1.953-1.953V24.023a1.955,1.955,0,0,0-1.953-1.953h-.984a4.547,4.547,0,0,1-4.208-2.831l-.012-.029a4.549,4.549,0,0,1,.974-4.979l.7-.7a1.956,1.956,0,0,0,0-2.762L39.225,9.394a1.952,1.952,0,0,0-2.762,0l-.7.7a4.548,4.548,0,0,1-4.979.974l-.029-.012a4.546,4.546,0,0,1-2.83-4.208V5.859a1.955,1.955,0,0,0-1.953-1.953H24.023A1.955,1.955,0,0,0,22.07,5.859v.984a4.546,4.546,0,0,1-2.831,4.208l-.025.01a4.549,4.549,0,0,1-4.982-.972l-.7-.7a1.953,1.953,0,0,0-2.762,0L9.394,10.775a1.956,1.956,0,0,0,0,2.762l.7.7a4.548,4.548,0,0,1,.973,4.979l-.012.029a4.546,4.546,0,0,1-4.208,2.83H5.859a1.955,1.955,0,0,0-1.953,1.953v1.953A1.955,1.955,0,0,0,5.859,27.93h.984a4.546,4.546,0,0,1,4.208,2.831l.014.034a4.546,4.546,0,0,1-.976,4.973l-.7.7a1.954,1.954,0,0,0,0,2.762l1.381,1.381a1.955,1.955,0,0,0,2.762,0l.7-.7a4.548,4.548,0,0,1,4.976-.974l.025.01a4.548,4.548,0,0,1,2.837,4.21v.984a1.955,1.955,0,0,0,1.953,1.953h1.953a1.955,1.955,0,0,0,1.953-1.953v-.984a4.546,4.546,0,0,1,2.83-4.208l.032-.013a4.549,4.549,0,0,1,4.976.975l.7.7a1.955,1.955,0,0,0,2.762,0l1.381-1.381a1.953,1.953,0,0,1,2.762,2.762l-1.381,1.381a5.866,5.866,0,0,1-8.286,0l-.7-.7a.654.654,0,0,0-.718-.128l-.042.018a.65.65,0,0,0-.409.595v.984A5.866,5.866,0,0,1,25.977,50H24.023a5.866,5.866,0,0,1-5.859-5.859v-.984a.652.652,0,0,0-.415-.6l-.035-.015a.654.654,0,0,0-.718.128l-.7.7a5.866,5.866,0,0,1-8.286,0L6.631,41.987a5.86,5.86,0,0,1,0-8.286l.7-.7a.655.655,0,0,0,.128-.718l-.016-.038a.651.651,0,0,0-.6-.413H5.859A5.866,5.866,0,0,1,0,25.977V24.023a5.866,5.866,0,0,1,5.859-5.859h.984a.653.653,0,0,0,.6-.415l.014-.035a.654.654,0,0,0-.128-.719l-.7-.7a5.866,5.866,0,0,1,0-8.287L8.013,6.632a5.86,5.86,0,0,1,8.287,0l.7.7a.654.654,0,0,0,.718.128l.035-.015a.652.652,0,0,0,.416-.6V5.859A5.866,5.866,0,0,1,24.023,0h1.953a5.866,5.866,0,0,1,5.859,5.859v.984a.653.653,0,0,0,.415.6l.04.016a.652.652,0,0,0,.714-.13l.7-.7a5.859,5.859,0,0,1,8.286,0l1.381,1.381a5.866,5.866,0,0,1,0,8.286l-.7.7a.654.654,0,0,0-.128.718l.014.035a.654.654,0,0,0,.6.416h.984A5.866,5.866,0,0,1,50,24.023Zm-29.968.108a6.152,6.152,0,1,1,9.936,0A9.571,9.571,0,0,1,34.4,30.367a3.245,3.245,0,0,1-3.172,3.911H18.768A3.245,3.245,0,0,1,15.6,30.367,9.571,9.571,0,0,1,20.032,24.131Zm2.722-3.623A2.246,2.246,0,1,0,25,18.262,2.248,2.248,0,0,0,22.754,20.508Zm-3.108,9.863H30.354a5.675,5.675,0,0,0-5.3-3.711h-.1A5.675,5.675,0,0,0,19.646,30.371Zm0,0" fill="#212121"/></svg>