<svg xmlns="http://www.w3.org/2000/svg" width="45.187" height="57" viewBox="0 0 45.187 57"><path d="M16.239,31.312l-1.835-1.8-1.709,1.709a2.227,2.227,0,0,1-3.149-3.149l1.683-1.683L9.559,24.744a2.227,2.227,0,0,1,3.122-3.175l1.7,1.668,1.766-1.766a2.227,2.227,0,0,1,3.149,3.149l-1.739,1.739,1.809,1.778a2.227,2.227,0,1,1-3.122,3.175Zm19.723,7.637a2.226,2.226,0,0,0-3.149,0l-1.765,1.765L29.394,39.06a2.226,2.226,0,0,0-3.149,3.148L27.9,43.863l-1.766,1.766a2.226,2.226,0,1,0,3.149,3.148l1.766-1.765,1.765,1.765a2.226,2.226,0,1,0,3.149-3.148L34.2,43.863,35.962,42.1A2.227,2.227,0,0,0,35.962,38.949Zm-.8-14.012a2.227,2.227,0,1,0-2.227,2.227A2.226,2.226,0,0,0,35.167,24.937ZM10.229,45.421a2.227,2.227,0,1,0,2.227-2.227A2.227,2.227,0,0,0,10.229,45.421Zm7.793-3.228a2.22,2.22,0,0,0,1.575-.652l9.351-9.351A2.226,2.226,0,1,0,25.8,29.041l-9.351,9.351a2.227,2.227,0,0,0,1.574,3.8Zm22.711-5.121v-22.6a4.458,4.458,0,0,0-4.453-4.453H29.266v1.113a6.68,6.68,0,1,1-13.359,0V10.019h-7a4.458,4.458,0,0,0-4.453,4.453V48.093a4.458,4.458,0,0,0,4.453,4.453H36.28a4.458,4.458,0,0,0,4.453-4.453,2.227,2.227,0,1,1,4.453,0A8.916,8.916,0,0,1,36.28,57H8.906A8.916,8.916,0,0,1,0,48.093V14.473A8.916,8.916,0,0,1,8.906,5.566h7V2.227A2.226,2.226,0,0,1,18.134,0H27.04a2.227,2.227,0,0,1,2.227,2.227v3.34H36.28a8.916,8.916,0,0,1,8.906,8.906v22.6a2.227,2.227,0,0,1-4.454,0ZM24.813,4.453H20.36v6.68a2.227,2.227,0,1,0,4.453,0Zm0,0" fill="#212121"/></svg>