<svg xmlns="http://www.w3.org/2000/svg" xmlns:xlink="http://www.w3.org/1999/xlink" width="30" height="29.998" viewBox="0 0 30 29.998"><defs><clipPath id="a"><rect width="30" height="29.998" fill="none"/></clipPath></defs><g clip-path="url(#a)"><path d="M28.828,24.725A1.172,1.172,0,0,0,30,23.553V14.178a2.933,2.933,0,0,0-2.93-2.93H24.492a2.933,2.933,0,0,0-2.93,2.93V27.654H13.126l.009-7.031h3.744l0,2.928a1.172,1.172,0,0,0,1.17,1.173h0a1.172,1.172,0,0,0,1.172-1.17l.019-14.767h1.719A1.828,1.828,0,0,0,22.25,5.666L17.7,1.116a3.822,3.822,0,0,0-5.4,0L7.75,5.666A1.828,1.828,0,0,0,9.043,8.787h1.763l-.023,18.867H2.344V20.623h3.75v2.93a1.172,1.172,0,0,0,2.344,0V15.936a2.933,2.933,0,0,0-2.93-2.93H2.93A2.933,2.933,0,0,0,0,15.936V28.826A1.172,1.172,0,0,0,1.172,30H28.828a1.172,1.172,0,0,0,0-2.344H23.906V20.623h3.75v2.93A1.172,1.172,0,0,0,28.828,24.725ZM10.288,6.443l3.67-3.67a1.474,1.474,0,0,1,2.085,0l3.67,3.67H18.068A1.172,1.172,0,0,0,16.9,7.614l-.014,10.665H13.138l.013-10.663a1.172,1.172,0,0,0-1.172-1.173ZM2.93,15.35H5.508a.587.587,0,0,1,.586.586v2.344H2.344V15.936A.587.587,0,0,1,2.93,15.35Zm20.977,2.93v-4.1a.587.587,0,0,1,.586-.586H27.07a.587.587,0,0,1,.586.586v4.1Zm0,0" fill="#333"/></g></svg>