<svg xmlns="http://www.w3.org/2000/svg" xmlns:xlink="http://www.w3.org/1999/xlink" width="30" height="30" viewBox="0 0 30 30"><defs><clipPath id="a"><rect width="30" height="30" fill="none"/></clipPath></defs><g clip-path="url(#a)"><path d="M28.828,21.621a1.164,1.164,0,0,0-.264.031,1.164,1.164,0,0,0-.264-.031H14.063a1.172,1.172,0,0,0,0,2.344H27.656v1.348a2.347,2.347,0,0,1-2.344,2.344H4.688a2.347,2.347,0,0,1-2.344-2.344V23.965H8.673A1.877,1.877,0,0,0,10.507,21.7,5.229,5.229,0,0,0,8.1,18.295a3.516,3.516,0,1,0-5.733.051A5.212,5.212,0,0,0,.04,21.7a1.9,1.9,0,0,0-.029.585A1.2,1.2,0,0,0,0,22.441v2.871A4.693,4.693,0,0,0,4.688,30H25.313A4.693,4.693,0,0,0,30,25.313v-2.52A1.172,1.172,0,0,0,28.828,21.621ZM5.246,19.858H5.3a2.94,2.94,0,0,1,2.735,1.763H2.51A2.94,2.94,0,0,1,5.246,19.858Zm-.031-4.741a1.172,1.172,0,1,1-1.172,1.172A1.173,1.173,0,0,1,5.215,15.117Zm24.7-6.442A5.213,5.213,0,0,0,27.619,5.51a3.516,3.516,0,1,0-5.786,0,5.216,5.216,0,0,0-2.341,3.367,1.877,1.877,0,0,0,1.835,2.262h6.329v4.037H23.672a1.172,1.172,0,0,0,0,2.344h3.984a1.172,1.172,0,0,0,2.344,0v-8.4A1.166,1.166,0,0,0,29.914,8.675ZM24.727,2.344a1.172,1.172,0,1,1-1.172,1.172A1.173,1.173,0,0,1,24.727,2.344ZM24.7,7.031h.056a2.94,2.94,0,0,1,2.735,1.763H21.963A2.94,2.94,0,0,1,24.7,7.031ZM11.542,17.525h6.8a1.877,1.877,0,0,0,1.835-2.261A5.216,5.216,0,0,0,17.834,11.9a3.516,3.516,0,1,0-5.786,0,5.216,5.216,0,0,0-2.341,3.367,1.877,1.877,0,0,0,1.835,2.261Zm3.371-4.107h.056A2.94,2.94,0,0,1,17.7,15.181H12.178A2.94,2.94,0,0,1,14.913,13.418Zm.028-4.687A1.172,1.172,0,1,1,13.77,9.9,1.173,1.173,0,0,1,14.941,8.73Zm0,0" fill="#333"/></g></svg>