<svg xmlns="http://www.w3.org/2000/svg" width="20" height="20" viewBox="0 0 20 20"><path d="M152.522.622a10.037,10.037,0,0,0-6.956,0L144.7,10l.87,9.378a10.036,10.036,0,0,0,6.956,0l.87-9.378Z" transform="translate(-139.044 0)" fill="#ffda44"/><path d="M351.565,25.3a10,10,0,0,0-6.522-9.378V34.679A10,10,0,0,0,351.565,25.3Z" transform="translate(-331.565 -15.301)" fill="#d80027"/><path d="M0,25.3A10,10,0,0,0,6.522,34.68V15.924A10,10,0,0,0,0,25.3Z" transform="translate(0 -15.302)" fill="#0052b4"/></svg>