<svg xmlns="http://www.w3.org/2000/svg" width="20" height="19.502" viewBox="0 0 20 19.502"><g transform="translate(0.359)"><ellipse cx="10" cy="9.688" rx="10" ry="9.688" transform="translate(-0.359)" fill="#f0f0f0"/><g transform="translate(0.252 2.12)"><path d="M244.87,191.761h10.175a9.763,9.763,0,0,0-.336-2.544H244.87Z" transform="translate(-235.879 -184.129)" fill="#d80027"/><path d="M244.87,58.2h8.744a9.8,9.8,0,0,0-2.25-2.544H244.87Z" transform="translate(-235.879 -55.652)" fill="#d80027"/><path d="M102.714,458.468a9.709,9.709,0,0,0,6.07-2.12H96.644A9.709,9.709,0,0,0,102.714,458.468Z" transform="translate(-93.299 -441.085)" fill="#d80027"/><path d="M9.914,325.326h16.64a9.694,9.694,0,0,0,1.1-2.544H8.819A9.693,9.693,0,0,0,9.914,325.326Z" transform="translate(-8.819 -312.607)" fill="#d80027"/></g><path d="M4.517,1.523h.889l-.827.6.316.972-.827-.6-.827.6.273-.839A9.8,9.8,0,0,0,1.623,4.363h.285l-.526.382q-.123.205-.236.417l.251.773L.928,5.595q-.175.37-.319.757L.886,7.2H1.908l-.827.6.316.972-.827-.6-.5.36A9.845,9.845,0,0,0,0,9.751H9.751V0A9.705,9.705,0,0,0,4.517,1.523Zm.378,7.253-.827-.6-.827.6L3.557,7.8l-.827-.6H3.752l.316-.972.316.972H5.406l-.827.6ZM4.579,4.964l.316.972-.827-.6-.827.6.316-.972-.827-.6H3.752l.316-.972.316.972H5.406ZM8.392,8.776l-.827-.6-.827.6L7.055,7.8l-.827-.6H7.25l.316-.972.316.972H8.9l-.827.6ZM8.077,4.964l.316.972-.827-.6-.827.6.316-.972-.827-.6H7.25l.316-.972.316.972H8.9Zm0-2.841.316.972-.827-.6-.827.6.316-.972-.827-.6H7.25L7.566.551l.316.972H8.9Z" transform="translate(-0.084)" fill="#0052b4"/></g></svg>