<svg xmlns="http://www.w3.org/2000/svg" width="32" height="24.776" viewBox="0 0 32 24.776"><path d="M19.649,46.185a1.134,1.134,0,0,1-1.39-.1l-.757-.952a1.127,1.127,0,0,1,.364-1.431q2.046-1.7,2.975-2.626a14.513,14.513,0,0,0,2.7-3.828c.135-.291-.21-.476-.39-.535q-6.709-2.2-6.71-7.752a6.967,6.967,0,0,1,2.173-5.316A7.633,7.633,0,0,1,24.061,21.6a6.637,6.637,0,0,1,5.163,2.658,8.065,8.065,0,0,1,2.2,5.418Q31.422,38.217,19.649,46.185Zm17.022,0a1.134,1.134,0,0,1-1.39-.1l-.757-.952a1.127,1.127,0,0,1,.364-1.431q2.046-1.7,2.975-2.626a14.517,14.517,0,0,0,2.7-3.828c.135-.291-.21-.476-.39-.535q-6.709-2.2-6.71-7.752a6.967,6.967,0,0,1,2.173-5.316A7.634,7.634,0,0,1,41.083,21.6a6.637,6.637,0,0,1,5.163,2.658,8.065,8.065,0,0,1,2.2,5.418Q48.444,38.217,36.671,46.185Z" transform="translate(-16.444 -21.602)" fill="#25ae60"/></svg>