<svg xmlns="http://www.w3.org/2000/svg" width="120" height="17.569" viewBox="0 0 120 17.569"><path d="M131.653-136.65a15.418,15.418,0,0,0-1.889-1,14.891,14.891,0,0,1-2.678-1.529,1.556,1.556,0,0,1-.361-1.773,1.108,1.108,0,0,1,1.134-.624s1.2.066,1.2,1.051v1.389h4.295l-.008-2.046s.33-3.351-5.058-3.5c0,0-4.237-.279-5.453,2,0,0-.477.508-.477,2.282v1.282a4.237,4.237,0,0,0,.706,2.43,5.6,5.6,0,0,0,1.479,1.314s2.135,1.15,3.416,1.808c0,0,1.294.738,1.123,1.913a1.266,1.266,0,0,1-1.354,1.157,1.194,1.194,0,0,1-1.142-1.235v-1.388h-4.575v2.017s-.129,3.858,5.752,3.858c0,0,5.617.114,5.88-3.959v-1.641a4.289,4.289,0,0,0-1.986-3.81" transform="translate(-65.85 144.808)" fill-rule="evenodd"/><path d="M91.706-143.818l-1.438,9.01h-.336l-1.374-8.93H81.385l-.359,16.317h4.247l.051-12.294h.334l2.251,12.291h4.468L94.6-139.711h.3l.1,12.289h4.269l-.459-16.4h-7.1" transform="translate(-47.887 144.425)" fill-rule="evenodd"/><path d="M52.825-143.7,50-127.387h4.572l1.674-12.647h.376l1.673,12.647h4.571L60.04-143.7H52.825" transform="translate(-34.286 144.373)" fill-rule="evenodd"/><path d="M221.453-136.966v2.407h1.173v2.583a1.152,1.152,0,0,1-1.079,1.285,1.156,1.156,0,0,1-1.263-1.2v-8.934c0-.92,1.164-.97,1.164-.97a1.091,1.091,0,0,1,1.126,1.1v1.359h4.3c.14-2.652-.388-3.294-.388-3.294-1.068-2.4-5.107-2.267-5.107-2.267-6.207,0-5.519,4.763-5.519,4.763v8.638c.133,4.467,6.249,4.014,6.353,4.008,2.721-.3,3.543-1.165,3.543-1.165a2.645,2.645,0,0,0,.951-1.339,7.931,7.931,0,0,0,.27-1.9v-5.075h-5.529" transform="translate(-106.982 144.899)" fill-rule="evenodd"/><path d="M192.8-133.835h-.186l-4.37-9.978h-5.225v16.4h4.253l-.255-9.976h.19l4.525,9.976H196.8v-16.4h-4.307l.306,9.979" transform="translate(-92.592 144.424)" fill-rule="evenodd"/><path d="M158.917-131.494s.062,1.346-1.185,1.346a1.231,1.231,0,0,1-1.313-1.313l-.013-12.334H151.74v12.236s-.479,4.631,6.057,4.631c0,0,5.679.067,5.679-4.419v-12.447h-4.559v12.3" transform="translate(-78.88 144.415)" fill-rule="evenodd"/><path d="M31.667-136.651a15.393,15.393,0,0,0-1.889-1A14.8,14.8,0,0,1,27.1-139.18a1.555,1.555,0,0,1-.361-1.773,1.106,1.106,0,0,1,1.132-.624s1.2.065,1.2,1.05v1.389h4.3l-.008-2.047s.328-3.35-5.058-3.5a9.656,9.656,0,0,0-1,0s-3.263.175-4.43,1.965c-.006.013-.016.023-.023.035s-.476.508-.476,2.282v1.282a4.234,4.234,0,0,0,.707,2.43,5.593,5.593,0,0,0,1.478,1.314s2.134,1.149,3.416,1.807c0,0,1.295.738,1.124,1.914a1.267,1.267,0,0,1-1.354,1.157,1.194,1.194,0,0,1-1.142-1.234v-1.389H22.023v2.018s-.128,3.858,5.751,3.858c0,0,5.617.114,5.88-3.959v-1.641a4.292,4.292,0,0,0-1.988-3.811" transform="translate(-22.023 144.808)" fill-rule="evenodd"/></svg>