<svg xmlns="http://www.w3.org/2000/svg" width="120" height="17.841" viewBox="0 0 120 17.841"><path d="M9.957,29.371H6.212a.924.924,0,0,1-.647-.194,1.038,1.038,0,0,1-.185-.68V16.579H1.98a.924.924,0,0,1-.647-.194,1.038,1.038,0,0,1-.185-.68V12.768a.937.937,0,0,1,.185-.655.857.857,0,0,1,.647-.218H14.188a.779.779,0,0,1,.624.218.867.867,0,0,1,.208.655V15.7a.957.957,0,0,1-.208.68.836.836,0,0,1-.624.194h-3.4V28.5a.957.957,0,0,1-.208.68.836.836,0,0,1-.624.194Z" transform="translate(-1.148 -11.894)"/><path d="M27.39,29.371a.924.924,0,0,1-.647-.194,1.038,1.038,0,0,1-.185-.68V25.609a.937.937,0,0,1,.185-.655.857.857,0,0,1,.647-.218h2.289V16.579H27.39a.924.924,0,0,1-.647-.194,1.038,1.038,0,0,1-.185-.68V12.768a.937.937,0,0,1,.185-.655.857.857,0,0,1,.647-.218h9.85a.779.779,0,0,1,.624.218.867.867,0,0,1,.208.655V15.7a.957.957,0,0,1-.208.68.836.836,0,0,1-.624.194H35v8.156h2.243a.779.779,0,0,1,.624.218.867.867,0,0,1,.208.655V28.5a.957.957,0,0,1-.208.68.836.836,0,0,1-.624.194Z" transform="translate(-9.425 -11.894)"/><path d="M54.209,29.371H50.741a.924.924,0,0,1-.647-.194,1.038,1.038,0,0,1-.185-.68V12.768a.937.937,0,0,1,.185-.655.857.857,0,0,1,.647-.218h2.4a1.688,1.688,0,0,1,.74.146,1.78,1.78,0,0,1,.624.51L59,17.938v-5.17a.937.937,0,0,1,.185-.655.857.857,0,0,1,.647-.218H63.3a.779.779,0,0,1,.624.218.867.867,0,0,1,.208.655V28.5a.957.957,0,0,1-.208.68.836.836,0,0,1-.624.194H59.828a.924.924,0,0,1-.647-.194A1.038,1.038,0,0,1,59,28.5V25.512l-3.954-5.025V28.5a.957.957,0,0,1-.208.68.836.836,0,0,1-.624.194Z" transform="translate(-17.031 -11.894)"/><path d="M85.958,29.371H82.212a.924.924,0,0,1-.647-.194,1.038,1.038,0,0,1-.185-.68V25.39l-3.537-4.976a5.245,5.245,0,0,1-.717-1.311,6.449,6.449,0,0,1-.162-1.675V12.768a.937.937,0,0,1,.185-.655.857.857,0,0,1,.647-.218h3.561a.779.779,0,0,1,.624.218.867.867,0,0,1,.208.655v3.981q0,.243.023.51a1.077,1.077,0,0,0,.185.51l1.064,1.748a1.059,1.059,0,0,0,.231.316.55.55,0,0,0,.324.1h.231a.452.452,0,0,0,.3-.1.876.876,0,0,0,.254-.316l1.064-1.748a1.077,1.077,0,0,0,.185-.51q.023-.267.023-.51V12.768a.937.937,0,0,1,.185-.655.857.857,0,0,1,.647-.218h3.445a.779.779,0,0,1,.624.218.867.867,0,0,1,.208.655v4.661A5.678,5.678,0,0,1,91,19.1a5.59,5.59,0,0,1-.694,1.311l-3.514,5V28.5a.957.957,0,0,1-.208.68.836.836,0,0,1-.624.194Z" transform="translate(-25.844 -11.894)"/><path d="M118.131,24.783a6.124,6.124,0,0,1-.324,2.039,3.351,3.351,0,0,1-1.11,1.554,5.809,5.809,0,0,1-2.173,1,17.366,17.366,0,0,1-7.075,0,6.051,6.051,0,0,1-2.2-1,3.586,3.586,0,0,1-1.11-1.554,6.553,6.553,0,0,1-.3-2.039V12.768a.937.937,0,0,1,.185-.655.857.857,0,0,1,.647-.218h3.63a.779.779,0,0,1,.624.218.867.867,0,0,1,.208.655V23.837a1.112,1.112,0,0,0,.347.825,2.515,2.515,0,0,0,1.549.316,2.568,2.568,0,0,0,1.572-.316,1.112,1.112,0,0,0,.347-.825V12.768a.937.937,0,0,1,.185-.655.857.857,0,0,1,.647-.218H117.3a.779.779,0,0,1,.624.218.867.867,0,0,1,.208.655Z" transform="translate(-34.599 -11.894)"/><path d="M136.883,16.263V19.37h1.734a.9.9,0,0,0,.809-.316,1.552,1.552,0,0,0,.208-.825V17.4a1.427,1.427,0,0,0-.208-.8.873.873,0,0,0-.809-.34Zm-.832,13.108H132.49a.924.924,0,0,1-.647-.194,1.038,1.038,0,0,1-.185-.68V12.768a.937.937,0,0,1,.185-.655.857.857,0,0,1,.647-.218h7.7q2.589,0,3.561,1.141a4.216,4.216,0,0,1,.994,2.913v1.117a4.573,4.573,0,0,1-.3,1.748,1.8,1.8,0,0,1-.994,1.019,2.952,2.952,0,0,1,2.012,1.068,3.651,3.651,0,0,1,.786,2.452V28.5a.957.957,0,0,1-.208.68.836.836,0,0,1-.624.194h-3.584a.924.924,0,0,1-.647-.194A1.038,1.038,0,0,1,141,28.5V24.783a1.182,1.182,0,0,0-.208-.777.76.76,0,0,0-.671-.267h-3.237V28.5a.957.957,0,0,1-.208.68.836.836,0,0,1-.624.194Z" transform="translate(-43.659 -11.894)"/><path d="M171.8,29.371H160.029a.924.924,0,0,1-.647-.194,1.038,1.038,0,0,1-.185-.68V12.768a.937.937,0,0,1,.185-.655.857.857,0,0,1,.647-.218h3.584a.779.779,0,0,1,.624.218.867.867,0,0,1,.208.655V24.783h3.168V20.851a.937.937,0,0,1,.185-.655.857.857,0,0,1,.647-.218H171.8a.779.779,0,0,1,.624.218.867.867,0,0,1,.208.655V28.5a.957.957,0,0,1-.208.68A.836.836,0,0,1,171.8,29.371Z" transform="translate(-52.63 -11.894)"/></svg>