<svg xmlns="http://www.w3.org/2000/svg" width="120" height="21.08" viewBox="0 0 120 21.08"><path d="M5.725-3.669a.679.679,0,0,1-.675-.488L.83-16.219l-.038-.206a.347.347,0,0,1,.122-.263.392.392,0,0,1,.272-.113h.9a.492.492,0,0,1,.328.1.479.479,0,0,1,.159.234L6.288-5.733l3.733-10.73a.479.479,0,0,1,.159-.234.492.492,0,0,1,.328-.1h.9a.36.36,0,0,1,.263.113.36.36,0,0,1,.113.263.89.89,0,0,1-.019.206L7.545-4.157a.679.679,0,0,1-.675.488Zm8.76,0a.389.389,0,0,1-.3-.122.439.439,0,0,1-.113-.31V-16.35a.465.465,0,0,1,.113-.328.389.389,0,0,1,.3-.122H22.2a.444.444,0,0,1,.328.122.444.444,0,0,1,.122.328v.675a.389.389,0,0,1-.122.3.465.465,0,0,1-.328.113H15.8v4.183h5.984a.444.444,0,0,1,.328.122.444.444,0,0,1,.122.328v.638a.419.419,0,0,1-.122.31.444.444,0,0,1-.328.122H15.8v4.333h6.547a.444.444,0,0,1,.328.122.444.444,0,0,1,.122.328V-4.1a.4.4,0,0,1-.131.31.452.452,0,0,1-.319.122Zm11.349,0a.389.389,0,0,1-.3-.122.439.439,0,0,1-.113-.31V-16.35a.465.465,0,0,1,.113-.328.389.389,0,0,1,.3-.122h4.577a5.094,5.094,0,0,1,3.348,1,3.573,3.573,0,0,1,1.21,2.917,3.714,3.714,0,0,1-.713,2.345,3.682,3.682,0,0,1-1.988,1.276l2.889,5.008a.467.467,0,0,1,.056.206.36.36,0,0,1-.113.263.36.36,0,0,1-.263.113h-.825a.674.674,0,0,1-.441-.131,1.24,1.24,0,0,1-.291-.375l-2.757-4.8H27.185V-4.1a.4.4,0,0,1-.131.31.452.452,0,0,1-.319.122Zm4.5-6.847q2.832,0,2.832-2.382t-2.832-2.382H27.185v4.765ZM38.1-3.669a.389.389,0,0,1-.3-.122.439.439,0,0,1-.113-.31V-16.35a.465.465,0,0,1,.113-.328.389.389,0,0,1,.3-.122h.882a.444.444,0,0,1,.328.122.444.444,0,0,1,.122.328v4.671L44.517-16.5a1,1,0,0,1,.732-.3h.938a.36.36,0,0,1,.263.113.36.36,0,0,1,.113.263.33.33,0,0,1-.094.244l-5.853,5.665,6.246,6.209a.4.4,0,0,1,.094.263.36.36,0,0,1-.113.263.36.36,0,0,1-.263.113h-.975a.846.846,0,0,1-.413-.084,2.612,2.612,0,0,1-.319-.216l-5.44-5.309V-4.1a.4.4,0,0,1-.131.31.452.452,0,0,1-.319.122Zm9.9,0a.36.36,0,0,1-.263-.113.36.36,0,0,1-.113-.263l.038-.206,4.652-12.137a.584.584,0,0,1,.6-.413h1.2a.584.584,0,0,1,.6.413L59.374-4.251l.038.206a.347.347,0,0,1-.122.263.392.392,0,0,1-.272.113h-.882a.463.463,0,0,1-.31-.1.5.5,0,0,1-.159-.216l-1.05-2.7H50.407l-1.032,2.7a.493.493,0,0,1-.469.319Zm2.945-4.577h5.14l-2.57-6.734Zm10.9,4.577a.389.389,0,0,1-.3-.122.439.439,0,0,1-.113-.31V-16.35a.465.465,0,0,1,.113-.328.389.389,0,0,1,.3-.122h4.239a5.59,5.59,0,0,1,4.089,1.266,5.329,5.329,0,0,1,1.294,3.817q.019.544.019,1.463t-.019,1.482a7.091,7.091,0,0,1-.572,2.9,3.44,3.44,0,0,1-1.679,1.66,7.145,7.145,0,0,1-3.039.544Zm4.239-1.557a4.981,4.981,0,0,0,2.092-.366,2.232,2.232,0,0,0,1.125-1.144,5.677,5.677,0,0,0,.385-2.11q.038-1.125.038-1.407,0-.3-.038-1.388A3.926,3.926,0,0,0,68.8-14.39a3.8,3.8,0,0,0-2.8-.872H63.2V-5.226Zm7.128,1.557a.36.36,0,0,1-.263-.113.36.36,0,0,1-.113-.263l.038-.206,4.652-12.137a.584.584,0,0,1,.6-.413h1.2a.584.584,0,0,1,.6.413L84.585-4.251l.038.206a.347.347,0,0,1-.122.263.392.392,0,0,1-.272.113h-.882a.463.463,0,0,1-.31-.1.5.5,0,0,1-.159-.216l-1.05-2.7H75.618l-1.032,2.7a.493.493,0,0,1-.469.319Zm2.945-4.577H81.3l-2.57-6.734Z" transform="translate(35.378 21.244)"/><rect width="9.379" height="20.321" rx="2" transform="translate(22.185 0.079) rotate(45)"/><rect width="9.379" height="9.379" rx="2" transform="translate(6.632 0) rotate(45)"/></svg>